<?xml version="1.0" encoding="UTF-8" standalone="no"?>
<svg
   xmlns:dc="http://purl.org/dc/elements/1.1/"
   xmlns:cc="http://creativecommons.org/ns#"
   xmlns:rdf="http://www.w3.org/1999/02/22-rdf-syntax-ns#"
   xmlns:svg="http://www.w3.org/2000/svg"
   xmlns="http://www.w3.org/2000/svg"
   xmlns:sodipodi="http://sodipodi.sourceforge.net/DTD/sodipodi-0.dtd"
   xmlns:inkscape="http://www.inkscape.org/namespaces/inkscape"
   version="1.1"
   id="svg2"
   xml:space="preserve"
   width="559.47998"
   height="520.93335"
   viewBox="0 0 559.47998 520.93335"
   sodipodi:docname="4113320.eps"><metadata
     id="metadata8"><rdf:RDF><cc:Work
         rdf:about=""><dc:format>image/svg+xml</dc:format><dc:type
           rdf:resource="http://purl.org/dc/dcmitype/StillImage" /></cc:Work></rdf:RDF></metadata><defs
     id="defs6" /><sodipodi:namedview
     pagecolor="#ffffff"
     bordercolor="#666666"
     borderopacity="1"
     objecttolerance="10"
     gridtolerance="10"
     guidetolerance="10"
     inkscape:pageopacity="0"
     inkscape:pageshadow="2"
     inkscape:window-width="640"
     inkscape:window-height="480"
     id="namedview4" /><g
     id="g10"
     inkscape:groupmode="layer"
     inkscape:label="ink_ext_XXXXXX"
     transform="matrix(1.3333333,0,0,-1.3333333,0,520.93333)"><g
       id="g12"
       transform="scale(0.1)"><path
         d="M 0.046875,1831.99 C 0.0195313,1828.37 0.0117188,1824.75 0,1821.14 -0.765625,1335.95 118.574,658.852 848.633,544.391 1345.9,466.43 1718.69,744.828 2029.99,1023.23 c 287.32,256.96 522.27,513.91 754.36,490.68 247.59,-24.77 531.46,-57.64 759.58,32.49 217.47,85.94 391.07,244.52 499.04,415.35 385.53,610.03 2.91,1278.59 -701.31,1634.34 C 2402.27,4070.65 1054.06,4037.66 452.109,3248.06 137.285,2835.09 2.84375,2316.14 0.046875,1831.99"
         style="fill:#6ccb94;fill-opacity:1;fill-rule:nonzero;stroke:none"
         id="path14" /><path
         d="m 1016.94,531.09 c -54.471,0 -110.581,4.25 -168.307,13.301 C 120.715,658.52 -0.0585938,1331.99 -0.00390625,1816.87 c 0,1.43 0.00390625,2.85 0.00390625,4.27 0.0117188,3.61 0.0195313,7.23 0.046875,10.85 C 2.84375,2316.14 137.285,2835.09 452.109,3248.06 c 347.047,455.23 942.041,658.95 1563.831,658.95 456.71,0 927.92,-109.96 1325.72,-310.92 512.35,-258.82 854.47,-683.22 854.39,-1130.19 -0.02,-167.38 -48.04,-337.94 -153.08,-504.15 -73.19,-115.8 -176.55,-225.98 -303.29,-311.72 v 1392.63 0 c 0,4.93 -0.21,9.75 -0.61,14.56 -7.4,107.11 -96.65,191.73 -205.59,191.74 H 662.578 c -108.922,-0.01 -198.156,-84.6 -205.582,-191.67 v 0 c -0.41,-4.84 -0.617,-9.69 -0.617,-14.63 v -738.22 c -12.461,-2.16 -24.535,-5.45 -36.109,-9.76 -2.59,-0.96 -3.907,-3.84 -2.942,-6.43 0.75,-2.01 2.656,-3.25 4.684,-3.26 0.582,0 1.172,0.11 1.746,0.32 10.472,3.9 21.379,6.92 32.621,8.97 v -883.92 c 0.004,-92.33 60.723,-170.51 144.398,-196.78 v -94.13 c 0.004,-68.4 55.446,-123.829 123.848,-123.841 h 633.935 c -0.4,-4.531 -0.95,-9.019 -1.65,-13.449 -0.43,-2.73 1.43,-5.289 4.16,-5.719 0.26,-0.043 0.52,-0.07 0.78,-0.07 2.42,0 4.55,1.758 4.94,4.231 0.78,4.937 1.38,9.949 1.8,15.007 h 304.06 v 5.001 -5.001 c 68.39,0.012 123.84,55.441 123.84,123.841 v 84.71 h 258.2 c -4.67,-28.1 -8.49,-51.93 -11.23,-68.41 -7.46,-44.8 -17.84,-87.34 -24.58,-122.44 C 1746.13,770.59 1426.1,531.07 1016.94,531.09 m 109.52,287.769 c -2.76,0 -5,-2.23 -5,-5 0,-2.757 2.24,-5 5,-5 h 39.02 l 1.01,0.012 c 2.76,0.008 4.98,2.258 4.97,5.02 -0.01,2.75 -2.25,4.98 -5,4.98 -0.01,0 -0.01,0 -0.02,0 l -0.95,-0.012 h -39.03 m -80,0 c -2.76,0 -5,-2.23 -5,-5 0,-2.757 2.24,-5 5,-5 h 40 c 2.76,0 5,2.243 5,5 0,2.77 -2.24,5 -5,5 h -40 m -79.999,0 c -2.762,0 -5,-2.23 -5,-5 0,-2.757 2.238,-5 5,-5 h 39.999 c 2.76,0 5,2.243 5,5 0,2.77 -2.24,5 -5,5 h -39.999 m -80,0 c -2.762,0 -5,-2.23 -5,-5 0,-2.757 2.238,-5 5,-5 h 40 c 2.762,0 5,2.243 5,5 0,2.77 -2.238,5 -5,5 h -40 m -80,0 c -2.762,0 -5,-2.23 -5,-5 0,-2.757 2.238,-5 5,-5 h 40 c 2.762,0 5,2.243 5,5 0,2.77 -2.238,5 -5,5 h -40 m -80,0 c -2.762,0 -5,-2.23 -5,-5 0,-2.757 2.238,-5 5,-5 h 40 c 2.762,0 5,2.243 5,5 0,2.77 -2.238,5 -5,5 h -40 m -80,0 c -2.762,0 -5,-2.23 -5,-5 0,-2.757 2.238,-5 5,-5 h 40 c 2.762,0 5,2.243 5,5 0,2.77 -2.238,5 -5,5 h -40 m -80,0 c -2.762,0 -5,-2.23 -5,-5 0,-2.757 2.238,-5 5,-5 h 40 c 2.762,0 5,2.243 5,5 0,2.77 -2.238,5 -5,5 h -40 m -80,0.063 c -2.707,0 -4.934,-2.16 -4.996,-4.871 -0.07,-2.77 2.113,-5.063 4.875,-5.121 1.676,-0.051 3.359,-0.071 5.043,-0.071 h 35.078 c 2.762,0 5,2.243 5,5 0,2.77 -2.238,5 -5,5 h -35.078 c -1.606,0 -3.203,0.02 -4.797,0.063 -0.043,0 -0.086,0 -0.125,0 m 757.759,16.148 c -0.66,0 -1.33,-0.129 -1.98,-0.41 -11.8,-5.101 -24.21,-9.058 -37.1,-11.738 -2.7,-0.563 -4.44,-3.211 -3.87,-5.91 0.49,-2.364 2.57,-3.981 4.89,-3.981 0.33,0 0.68,0.028 1.02,0.098 13.55,2.82 26.61,6.98 39.03,12.351 2.53,1.09 3.7,4.032 2.61,6.571 -0.82,1.89 -2.66,3.019 -4.6,3.019 m -835.181,1.602 c -1.898,0 -3.715,-1.094 -4.551,-2.934 -1.144,-2.508 -0.035,-5.476 2.477,-6.629 12.316,-5.609 25.289,-10.031 38.773,-13.109 0.375,-0.09 0.75,-0.129 1.121,-0.129 2.278,0 4.336,1.57 4.868,3.879 0.617,2.699 -1.067,5.379 -3.758,5.988 -12.817,2.942 -25.149,7.141 -36.86,12.473 -0.671,0.309 -1.375,0.461 -2.07,0.461 m 900.361,43.84 c -1.32,0 -2.64,-0.524 -3.62,-1.551 -8.96,-9.402 -18.86,-17.902 -29.54,-25.352 -2.26,-1.578 -2.82,-4.699 -1.24,-6.961 0.97,-1.398 2.53,-2.136 4.1,-2.136 0.99,0 1.99,0.289 2.86,0.898 11.23,7.828 21.64,16.77 31.06,26.649 1.9,2 1.83,5.16 -0.17,7.07 -0.97,0.922 -2.21,1.383 -3.45,1.383 m -964.619,2.867 c -1.207,0 -2.418,-0.43 -3.379,-1.309 -2.035,-1.871 -2.172,-5.031 -0.308,-7.07 9.23,-10.07 19.457,-19.199 30.527,-27.262 0.887,-0.636 1.918,-0.949 2.938,-0.949 1.543,0 3.066,0.711 4.046,2.063 1.625,2.226 1.129,5.359 -1.101,6.976 -10.531,7.66 -20.258,16.352 -29.039,25.934 -0.985,1.066 -2.332,1.617 -3.684,1.617 m 1006.879,64.402 c -2.02,0 -3.92,-1.242 -4.68,-3.242 -4.6,-12.258 -10.41,-23.93 -17.29,-34.871 -1.47,-2.328 -0.77,-5.418 1.57,-6.887 0.83,-0.519 1.75,-0.769 2.66,-0.769 1.66,0 3.29,0.828 4.24,2.34 7.23,11.5 13.34,23.769 18.18,36.668 0.97,2.589 -0.33,5.468 -2.92,6.441 -0.58,0.219 -1.17,0.32 -1.76,0.32 M 303.852,951.48 c -0.551,0 -1.114,-0.101 -1.664,-0.289 -2.602,-0.921 -3.969,-3.781 -3.051,-6.382 4.59,-13 10.461,-25.391 17.457,-37.028 0.937,-1.562 2.594,-2.422 4.289,-2.422 0.879,0 1.765,0.231 2.574,0.719 2.363,1.422 3.129,4.492 1.707,6.863 -6.652,11.059 -12.234,22.84 -16.598,35.2 -0.722,2.05 -2.652,3.339 -4.714,3.339 m -11.286,78.69 c -2.761,0 -5,-2.24 -5,-5 v -12.5 c 0,-9.52 0.653,-18.9 1.918,-28.08 0.344,-2.512 2.489,-4.32 4.95,-4.32 0.226,0 0.457,0.019 0.687,0.05 2.734,0.371 4.649,2.899 4.27,5.629 -1.203,8.742 -1.825,17.661 -1.825,26.721 v 12.5 c 0,2.76 -2.242,5 -5,5 m 0,80 c -2.761,0 -5,-2.23 -5,-5 v -40 c 0,-2.76 2.239,-5 5,-5 2.758,0 5,2.24 5,5 v 40 c 0,2.77 -2.242,5 -5,5 m 0,80 c -2.761,0 -5,-2.23 -5,-5 v -40 c 0,-2.76 2.239,-5 5,-5 2.758,0 5,2.24 5,5 v 40 c 0,2.77 -2.242,5 -5,5 m 0,80 c -2.761,0 -5,-2.23 -5,-5 v -40 c 0,-2.76 2.239,-5 5,-5 2.758,0 5,2.24 5,5 v 40 c 0,2.77 -2.242,5 -5,5 m 0,80 c -2.761,0 -5,-2.24 -5,-5 v -40 c 0,-2.76 2.239,-5 5,-5 2.758,0 5,2.24 5,5 v 40 c 0,2.76 -2.242,5 -5,5 m 0,80 c -2.761,0 -5,-2.24 -5,-5 v -40 c 0,-2.76 2.239,-5 5,-5 2.758,0 5,2.24 5,5 v 40 c 0,2.76 -2.242,5 -5,5 m 0,80 c -2.761,0 -5,-2.24 -5,-5 v -40 c 0,-2.76 2.239,-5 5,-5 2.758,0 5,2.24 5,5 v 40 c 0,2.76 -2.242,5 -5,5 m 0,80 c -2.761,0 -5,-2.24 -5,-5 v -40 c 0,-2.76 2.239,-5 5,-5 2.758,0 5,2.24 5,5 v 40 c 0,2.76 -2.242,5 -5,5 m 0,80 c -2.761,0 -5,-2.24 -5,-5 v -40 c 0,-2.76 2.239,-5 5,-5 2.758,0 5,2.24 5,5 v 40 c 0,2.76 -2.242,5 -5,5 m 0,80 c -2.761,0 -5,-2.24 -5,-5 v -40 c 0,-2.76 2.239,-5 5,-5 2.758,0 5,2.24 5,5 v 40 c 0,2.76 -2.242,5 -5,5 m 0,80 c -2.761,0 -5,-2.24 -5,-5 v -40 c 0,-2.76 2.239,-5 5,-5 2.758,0 5,2.24 5,5 v 40 c 0,2.76 -2.242,5 -5,5 m 0,80 c -2.761,0 -5,-2.24 -5,-5 v -40 c 0,-2.76 2.239,-5 5,-5 2.758,0 5,2.24 5,5 v 40 c 0,2.76 -2.242,5 -5,5 m 0,80 c -2.761,0 -5,-2.24 -5,-5 v -40 c 0,-2.76 2.239,-5 5,-5 2.758,0 5,2.24 5,5 v 40 c 0,2.76 -2.242,5 -5,5 m 0,80 c -2.761,0 -5,-2.24 -5,-5 v -40 c 0,-2.76 2.239,-5 5,-5 2.758,0 5,2.24 5,5 v 40 c 0,2.76 -2.242,5 -5,5 m 4.278,79.69 c -2.313,0 -4.391,-1.61 -4.887,-3.97 -2.773,-13.14 -4.277,-26.75 -4.387,-40.68 -0.019,-2.76 2.2,-5.02 4.961,-5.04 0.016,0 0.028,0 0.039,0 2.746,0 4.981,2.22 5,4.96 0.102,13.27 1.535,26.2 4.172,38.7 0.571,2.7 -1.16,5.35 -3.859,5.92 -0.352,0.08 -0.695,0.11 -1.039,0.11 m 31.691,72.84 c -1.574,0 -3.121,-0.74 -4.094,-2.13 -7.812,-11.13 -14.539,-23.08 -20.027,-35.69 -1.101,-2.53 0.055,-5.48 2.586,-6.58 0.652,-0.28 1.328,-0.41 1.996,-0.41 1.93,0 3.766,1.12 4.586,3 5.219,11.99 11.613,23.35 19.043,33.94 1.586,2.26 1.039,5.37 -1.223,6.96 -0.871,0.61 -1.875,0.91 -2.867,0.91 m 57.653,54.66 c -0.903,0 -1.821,-0.25 -2.645,-0.76 h 0.004 c -11.629,-7.26 -22.469,-15.67 -32.367,-25.05 -2.004,-1.9 -2.09,-5.06 -0.188,-7.07 0.981,-1.04 2.305,-1.56 3.629,-1.56 1.234,0 2.473,0.46 3.438,1.37 9.418,8.93 19.726,16.92 30.785,23.83 2.34,1.46 3.054,4.55 1.59,6.89 -0.95,1.52 -2.579,2.35 -4.246,2.35"
         style="fill:#ccedd5;fill-opacity:1;fill-rule:nonzero;stroke:none"
         id="path16" /><path
         d="m 540.508,2307.43 h -40 c -2.762,0 -5,-2.24 -5,-5 0,-2.76 2.238,-5 5,-5 h 40 c 2.762,0 5,2.24 5,5 0,2.76 -2.238,5 -5,5 m -80.633,-2.42 c -13.699,-2.12 -26.949,-5.62 -39.605,-10.33 -2.59,-0.96 -3.907,-3.84 -2.942,-6.43 0.965,-2.59 3.844,-3.9 6.43,-2.94 12.031,4.48 24.625,7.8 37.652,9.82 2.727,0.42 4.598,2.98 4.176,5.71 -0.426,2.73 -2.981,4.6 -5.711,4.17 m -76.328,-28.41 c -11.629,-7.26 -22.469,-15.67 -32.367,-25.05 -2.004,-1.9 -2.09,-5.06 -0.188,-7.07 1.899,-2 5.063,-2.09 7.067,-0.19 9.418,8.93 19.726,16.92 30.785,23.83 2.34,1.46 3.054,4.55 1.59,6.89 -1.461,2.34 -4.547,3.05 -6.891,1.59 h 0.004 m -59.106,-56.03 c -7.812,-11.13 -14.539,-23.08 -20.027,-35.69 -1.101,-2.53 0.055,-5.48 2.586,-6.58 2.531,-1.1 5.48,0.06 6.582,2.59 5.219,11.99 11.613,23.35 19.043,33.94 1.586,2.26 1.039,5.37 -1.223,6.96 -2.257,1.59 -5.375,1.04 -6.961,-1.22 m -32.484,-74.68 c -2.773,-13.14 -4.277,-26.75 -4.387,-40.68 -0.019,-2.76 2.2,-5.02 4.961,-5.04 2.762,-0.02 5.02,2.2 5.039,4.96 0.102,13.27 1.535,26.2 4.172,38.7 0.571,2.7 -1.16,5.35 -3.859,5.92 -2.703,0.57 -5.356,-1.16 -5.926,-3.86 m -4.391,-80.72 v -40 c 0,-2.76 2.239,-5 5,-5 2.758,0 5,2.24 5,5 v 40 c 0,2.76 -2.242,5 -5,5 -2.761,0 -5,-2.24 -5,-5 m 0,-80 v -40 c 0,-2.76 2.239,-5 5,-5 2.758,0 5,2.24 5,5 v 40 c 0,2.76 -2.242,5 -5,5 -2.761,0 -5,-2.24 -5,-5 m 0,-80 v -40 c 0,-2.76 2.239,-5 5,-5 2.758,0 5,2.24 5,5 v 40 c 0,2.76 -2.242,5 -5,5 -2.761,0 -5,-2.24 -5,-5 m 0,-80 v -40 c 0,-2.76 2.239,-5 5,-5 2.758,0 5,2.24 5,5 v 40 c 0,2.76 -2.242,5 -5,5 -2.761,0 -5,-2.24 -5,-5 m 0,-80 v -40 c 0,-2.76 2.239,-5 5,-5 2.758,0 5,2.24 5,5 v 40 c 0,2.76 -2.242,5 -5,5 -2.761,0 -5,-2.24 -5,-5 m 0,-80 v -40 c 0,-2.76 2.239,-5 5,-5 2.758,0 5,2.24 5,5 v 40 c 0,2.76 -2.242,5 -5,5 -2.761,0 -5,-2.24 -5,-5 m 0,-80 v -40 c 0,-2.76 2.239,-5 5,-5 2.758,0 5,2.24 5,5 v 40 c 0,2.76 -2.242,5 -5,5 -2.761,0 -5,-2.24 -5,-5 m 0,-80 v -40 c 0,-2.76 2.239,-5 5,-5 2.758,0 5,2.24 5,5 v 40 c 0,2.76 -2.242,5 -5,5 -2.761,0 -5,-2.24 -5,-5 m 0,-80 v -40 c 0,-2.76 2.239,-5 5,-5 2.758,0 5,2.24 5,5 v 40 c 0,2.76 -2.242,5 -5,5 -2.761,0 -5,-2.24 -5,-5 m 0,-80 v -40 c 0,-2.76 2.239,-5 5,-5 2.758,0 5,2.24 5,5 v 40 c 0,2.76 -2.242,5 -5,5 -2.761,0 -5,-2.24 -5,-5 m 0,-80 v -40 c 0,-2.76 2.239,-5 5,-5 2.758,0 5,2.24 5,5 v 40 c 0,2.77 -2.242,5 -5,5 -2.761,0 -5,-2.23 -5,-5 m 0,-80 v -40 c 0,-2.76 2.239,-5 5,-5 2.758,0 5,2.24 5,5 v 40 c 0,2.77 -2.242,5 -5,5 -2.761,0 -5,-2.23 -5,-5 m 0,-80 v -40 c 0,-2.76 2.239,-5 5,-5 2.758,0 5,2.24 5,5 v 40 c 0,2.77 -2.242,5 -5,5 -2.761,0 -5,-2.23 -5,-5 m 0,-80 v -12.5 c 0,-9.52 0.653,-18.9 1.918,-28.08 0.379,-2.738 2.903,-4.649 5.637,-4.27 2.734,0.371 4.649,2.899 4.27,5.629 -1.203,8.742 -1.825,17.661 -1.825,26.721 v 12.5 c 0,2.76 -2.242,5 -5,5 -2.761,0 -5,-2.24 -5,-5 m 11.571,-80.361 c 4.59,-13 10.461,-25.391 17.457,-37.028 1.426,-2.359 4.496,-3.133 6.863,-1.703 2.363,1.422 3.129,4.492 1.707,6.863 -6.652,11.059 -12.234,22.84 -16.598,35.2 -0.918,2.597 -3.773,3.968 -6.378,3.05 -2.602,-0.921 -3.969,-3.781 -3.051,-6.382 M 341.094,875 c 9.23,-10.07 19.457,-19.199 30.527,-27.262 2.234,-1.617 5.359,-1.129 6.984,1.114 1.625,2.226 1.129,5.359 -1.101,6.976 -10.531,7.66 -20.258,16.352 -29.039,25.934 -1.863,2.027 -5.027,2.168 -7.063,0.308 -2.035,-1.871 -2.172,-5.031 -0.308,-7.07 m 65.871,-47.891 c 12.316,-5.609 25.289,-10.031 38.773,-13.109 2.692,-0.621 5.371,1.059 5.989,3.75 0.617,2.699 -1.067,5.379 -3.758,5.988 -12.817,2.942 -25.149,7.141 -36.86,12.473 -2.511,1.148 -5.476,0.039 -6.621,-2.473 -1.144,-2.508 -0.035,-5.476 2.477,-6.629 M 486.34,808.93 c 1.676,-0.051 3.359,-0.071 5.043,-0.071 h 35.078 c 2.762,0 5,2.243 5,5 0,2.77 -2.238,5 -5,5 h -35.078 c -1.606,0 -3.203,0.02 -4.797,0.063 -2.762,0.066 -5.055,-2.113 -5.121,-4.871 -0.07,-2.77 2.113,-5.063 4.875,-5.121 m 80.121,-0.071 h 40 c 2.762,0 5,2.243 5,5 0,2.77 -2.238,5 -5,5 h -40 c -2.762,0 -5,-2.23 -5,-5 0,-2.757 2.238,-5 5,-5 m 80,0 h 40 c 2.762,0 5,2.243 5,5 0,2.77 -2.238,5 -5,5 h -40 c -2.762,0 -5,-2.23 -5,-5 0,-2.757 2.238,-5 5,-5 m 80,0 h 40 c 2.762,0 5,2.243 5,5 0,2.77 -2.238,5 -5,5 h -40 c -2.762,0 -5,-2.23 -5,-5 0,-2.757 2.238,-5 5,-5 m 80,0 h 40 c 2.762,0 5,2.243 5,5 0,2.77 -2.238,5 -5,5 h -40 c -2.762,0 -5,-2.23 -5,-5 0,-2.757 2.238,-5 5,-5 m 80,0 h 40 c 2.762,0 5,2.243 5,5 0,2.77 -2.238,5 -5,5 h -40 c -2.762,0 -5,-2.23 -5,-5 0,-2.757 2.238,-5 5,-5 m 80,0 h 39.999 c 2.76,0 5,2.243 5,5 0,2.77 -2.24,5 -5,5 h -39.999 c -2.762,0 -5,-2.23 -5,-5 0,-2.757 2.238,-5 5,-5 m 79.999,0 h 40 c 2.76,0 5,2.243 5,5 0,2.77 -2.24,5 -5,5 h -40 c -2.76,0 -5,-2.23 -5,-5 0,-2.757 2.24,-5 5,-5 m 80,0 h 39.02 l 1.01,0.012 c 2.76,0.008 4.98,2.258 4.97,5.02 -0.01,2.757 -2.26,4.988 -5.02,4.98 l -0.95,-0.012 h -39.03 c -2.76,0 -5,-2.23 -5,-5 0,-2.757 2.24,-5 5,-5 m 80.72,4.27 c 13.55,2.82 26.61,6.98 39.03,12.351 2.53,1.09 3.7,4.032 2.61,6.571 -1.1,2.527 -4.04,3.699 -6.58,2.609 -11.8,-5.101 -24.21,-9.058 -37.1,-11.738 -2.7,-0.563 -4.44,-3.211 -3.87,-5.91 0.56,-2.703 3.2,-4.442 5.91,-3.883 m 74.78,32.281 c 11.23,7.828 21.64,16.77 31.06,26.649 1.9,2 1.83,5.16 -0.17,7.07 -2,1.902 -5.16,1.832 -7.07,-0.168 -8.96,-9.402 -18.86,-17.902 -29.54,-25.352 -2.26,-1.578 -2.82,-4.699 -1.24,-6.961 1.58,-2.269 4.7,-2.82 6.96,-1.238 m 56.2,58.942 c 7.23,11.5 13.34,23.769 18.18,36.668 0.97,2.589 -0.33,5.468 -2.92,6.441 -2.58,0.969 -5.47,-0.34 -6.44,-2.922 -4.6,-12.258 -10.41,-23.93 -17.29,-34.871 -1.47,-2.328 -0.77,-5.418 1.57,-6.887 2.34,-1.472 5.43,-0.769 6.9,1.571 m 28.63,76.25 c 1.65,10.449 2.51,21.158 2.51,32.068 0,2.76 -2.24,5 -5,5 -2.76,0 -5,-2.24 -5,-5 0,-10.38 -0.82,-20.568 -2.39,-30.51 -0.43,-2.73 1.43,-5.289 4.16,-5.719 2.73,-0.429 5.29,1.43 5.72,4.161"
         style="fill:#17282f;fill-opacity:1;fill-rule:nonzero;stroke:none"
         id="path18" /><path
         d="m 1314.02,3331.8 v 40 c 0,2.77 -2.24,5 -5,5 -2.76,0 -5,-2.23 -5,-5 v -40 c 0,-2.76 2.24,-5 5,-5 2.76,0 5,2.24 5,5 z m 0,80 v 40 c 0,2.77 -2.24,5 -5,5 -2.76,0 -5,-2.23 -5,-5 v -40 c 0,-2.76 2.24,-5 5,-5 2.76,0 5,2.24 5,5 z m 0,80 v 40 c 0,2.77 -2.24,5 -5,5 -2.76,0 -5,-2.23 -5,-5 v -40 c 0,-2.76 2.24,-5 5,-5 2.76,0 5,2.24 5,5 z m 2.33,78.84 c 2.59,12.76 7.26,24.76 13.64,35.65 1.4,2.38 0.6,5.44 -1.78,6.84 -2.38,1.4 -5.45,0.6 -6.84,-1.78 -6.93,-11.82 -12.01,-24.86 -14.82,-38.72 -0.55,-2.71 1.2,-5.35 3.91,-5.9 2.7,-0.55 5.34,1.2 5.89,3.91 z m 38.07,65 c 9.61,8.31 20.59,15.08 32.55,19.93 2.56,1.03 3.8,3.95 2.76,6.51 -1.04,2.56 -3.95,3.79 -6.51,2.76 -12.99,-5.27 -24.91,-12.62 -35.34,-21.64 -2.09,-1.81 -2.32,-4.97 -0.51,-7.06 1.81,-2.08 4.97,-2.31 7.05,-0.5 z m 69.8,28.24 c 2.17,0.12 4.36,0.18 6.57,0.18 h 33.15 c 2.76,0 5,2.24 5,5 0,2.76 -2.24,5 -5,5 h -33.15 c -2.39,0 -4.77,-0.06 -7.12,-0.19 -2.76,-0.16 -4.87,-2.51 -4.72,-5.27 0.15,-2.76 2.51,-4.87 5.27,-4.72 z m 79.72,0.18 h 40 c 2.76,0 5,2.24 5,5 0,2.76 -2.24,5 -5,5 h -40 c -2.76,0 -5,-2.24 -5,-5 0,-2.76 2.24,-5 5,-5 z m 80,0 h 40 c 2.76,0 5,2.24 5,5 0,2.76 -2.24,5 -5,5 h -40 c -2.76,0 -5,-2.24 -5,-5 0,-2.76 2.24,-5 5,-5 z m 80,0 h 40 c 2.76,0 5,2.24 5,5 0,2.76 -2.24,5 -5,5 h -40 c -2.76,0 -5,-2.24 -5,-5 0,-2.76 2.24,-5 5,-5 z m 80,0 h 40 c 2.76,0 5,2.24 5,5 0,2.76 -2.24,5 -5,5 h -40 c -2.76,0 -5,-2.24 -5,-5 0,-2.76 2.24,-5 5,-5 z m 80,0 h 40 c 2.76,0 5,2.24 5,5 0,2.76 -2.24,5 -5,5 h -40 c -2.76,0 -5,-2.24 -5,-5 0,-2.76 2.24,-5 5,-5 z m 80,0 h 40 c 2.76,0 5,2.24 5,5 0,2.76 -2.24,5 -5,5 h -40 c -2.76,0 -5,-2.24 -5,-5 0,-2.76 2.24,-5 5,-5 z m 80,0 h 40 c 2.76,0 5,2.24 5,5 0,2.76 -2.24,5 -5,5 h -40 c -2.76,0 -5,-2.24 -5,-5 0,-2.76 2.24,-5 5,-5 z m 80,0 h 40 c 2.76,0 5,2.24 5,5 0,2.76 -2.24,5 -5,5 h -40 c -2.76,0 -5,-2.24 -5,-5 0,-2.76 2.24,-5 5,-5 z m 80,0 h 40 c 2.76,0 5,2.24 5,5 0,2.76 -2.24,5 -5,5 h -40 c -2.76,0 -5,-2.24 -5,-5 0,-2.76 2.24,-5 5,-5 z m 80,0 h 40 c 2.76,0 5,2.24 5,5 0,2.76 -2.24,5 -5,5 h -40 c -2.76,0 -5,-2.24 -5,-5 0,-2.76 2.24,-5 5,-5 z m 80,0 h 3.47 c 12.02,0 23.6,-1.81 34.5,-5.17 2.64,-0.82 5.44,0.66 6.25,3.3 0.82,2.64 -0.66,5.44 -3.3,6.25 -11.84,3.66 -24.42,5.62 -37.45,5.62 h -3.47 c -2.76,0 -5,-2.24 -5,-5 0,-2.76 2.24,-5 5,-5 z m 72.1,-22.28 c 10.35,-7.53 19.42,-16.73 26.81,-27.19 1.59,-2.25 4.71,-2.79 6.97,-1.2 2.26,1.6 2.79,4.72 1.2,6.97 -8.02,11.36 -17.86,21.33 -29.1,29.51 -2.23,1.62 -5.36,1.13 -6.98,-1.1 -1.63,-2.23 -1.13,-5.36 1.1,-6.99 z m 43.43,-61.55 c 3.07,-10.44 4.71,-21.49 4.71,-32.93 0,-2.76 2.24,-5 5,-5 2.76,0 5,2.24 5,5 0,12.4 -1.78,24.41 -5.11,35.75 -0.78,2.65 -3.56,4.16 -6.21,3.39 -2.65,-0.78 -4.16,-3.56 -3.39,-6.21"
         style="fill:#17282f;fill-opacity:1;fill-rule:nonzero;stroke:none"
         id="path20" /><path
         d="M 3777.92,242.621 C 3777.92,108.621 3025.81,0 2098.03,0 1170.25,0 418.133,108.621 418.133,242.621 c 0,134 752.117,242.617 1679.897,242.617 927.78,0 1679.89,-108.617 1679.89,-242.617"
         style="fill:#6ccb94;fill-opacity:1;fill-rule:nonzero;stroke:none"
         id="path22" /><path
         d="M 2098.03,0 C 1170.25,0 418.133,108.621 418.133,242.621 c 0,134 752.117,242.617 1679.897,242.617 927.78,0 1679.89,-108.617 1679.89,-242.617 C 3777.92,108.621 3025.81,0 2098.03,0"
         style="fill:#ade2c0;fill-opacity:1;fill-rule:nonzero;stroke:none"
         id="path24" /><path
         d="m 3734.68,3042.66 v -1632.3 c 0,-111.1 -90.1,-201.2 -201.2,-201.2 H 662.578 c -111.098,0 -201.199,90.1 -201.199,201.2 v 1632.3 c 0,4.8 0.199,9.5 0.601,14.2 7.2,104.5 94.301,187.1 200.598,187.1 H 3533.48 c 106.3,0 193.4,-82.6 200.6,-187.1 0.39,-4.7 0.6,-9.4 0.6,-14.2"
         style="fill:#ffffff;fill-opacity:1;fill-rule:nonzero;stroke:none"
         id="path26" /><path
         d="m 3734.68,3042.66 h -5 v -1632.3 c 0,-54.18 -21.96,-103.2 -57.47,-138.73 -35.53,-35.51 -84.55,-57.47 -138.73,-57.47 H 662.578 c -54.183,0 -103.199,21.96 -138.726,57.47 -35.516,35.53 -57.469,84.55 -57.473,138.73 v 1632.3 c 0,4.66 0.195,9.22 0.582,13.78 l 0.008,0.08 c 7.015,101.88 91.961,182.45 195.609,182.44 H 3533.48 c 103.65,0.01 188.59,-80.56 195.61,-182.44 l 0.01,-0.07 c 0.38,-4.57 0.58,-9.13 0.58,-13.79 h 5 5 c 0,4.95 -0.21,9.79 -0.61,14.61 l -4.99,-0.41 4.99,0.35 c -7.39,107.11 -96.64,191.74 -205.59,191.75 H 662.578 c -108.945,-0.01 -198.199,-84.64 -205.586,-191.75 l 4.988,-0.35 -4.984,0.43 c -0.41,-4.84 -0.617,-9.69 -0.617,-14.63 v -1632.3 c 0.004,-113.86 92.34,-206.2 206.199,-206.2 H 3533.48 c 113.87,0 206.2,92.34 206.2,206.2 v 1632.3 h -5"
         style="fill:#17282f;fill-opacity:1;fill-rule:nonzero;stroke:none"
         id="path28" /><path
         d="M 3458.47,1285.05 H 747.844 c -104.141,0 -188.559,84.42 -188.559,188.56 V 2981.45 H 3647.03 V 1473.61 c 0,-104.14 -84.42,-188.56 -188.56,-188.56"
         style="fill:#17282f;fill-opacity:1;fill-rule:nonzero;stroke:none"
         id="path30" /><path
         d="m 3458.43,1290.01 h -290.75 c -17.85,39.8 -37.53,80.47 -58.74,119.53 l 76.54,54.82 -51.5,121.11 c 16.4,20.09 30.3,42.19 41.29,65.69 l 131.31,7.2 20,120.5 -122,49.11 c -2.8,25.69 -8.7,50.89 -17.5,75.19 l 87.79,97.8 -71.09,99.4 -121.1,-51.4 c -20.1,16.1 -42,29.7 -65.4,40.6 l -7.1,131.4 -120.6,19.9 -49.4,-121.5 c -25.6,-3 -50.71,-8.9 -74.91,-17.6 l -19.83,17.75 c -0.65,23.94 7.09,50.1 7.09,50.1 l -15.6,13.77 c 54.2,20.9 99.63,71.69 93.1,133.35 -2.69,25.42 -21.38,43.69 -45.63,49.73 -5.73,1.42 -11.36,2.04 -16.9,2.04 -25.42,0 -49.07,-13.1 -72.88,-22.09 -11.7,-4.41 -23.36,-6.17 -34.98,-6.17 -40.88,0 -81.45,21.75 -123.05,26.22 -8.45,0.91 -17.26,1.46 -26.15,1.46 -39.18,0 -80.02,-10.61 -99.4,-47.64 0,0 -82.06,-9.63 -118.01,-77.04 -35.95,-67.39 32.38,-160.7 32.38,-160.7 0,0 3.92,4.73 10.68,7.01 l -1.63,-1.73 c 0,0 -19.54,-17.27 -11.77,-60.92 1.59,-8.94 3.61,-17.62 5.94,-25.8 l -53.47,-2.5 c -9.89,16.48 -21.71,31.74 -35.11,45.36 l 28.95,93.47 -78.89,45.19 -66.01,-72.02 c -18.58,4.55 -37.64,6.94 -56.84,7.24 l -45.7,86.63 -87.69,-23.86 4.63,-97.84 c -16.47,-9.88 -31.75,-21.7 -45.45,-35.06 l -93.51,28.86 -3.05,-5.31 v 126.4 h 72.19 l 35.7,159.4 c 30.8,8.7 60.4,21.1 88.3,36.7 l 137.9,-87.7 107.3,107.3 -87.1,137.9 c 15.5,28 27.79,57.6 36.5,88.4 l 159.6,35.6 v 151.8 l -159.6,35.4 c -8.71,30.8 -20.9,60.6 -36.5,88.6 l 16.09,25.34 H 3642.03 V 1473.6 c 0,-50.69 -20.53,-96.55 -53.76,-129.8 -33.24,-33.24 -79.11,-53.79 -129.84,-53.79 m -1388.89,0 h -273.05 v 453.48 l 58.09,2.75 c 9.76,-16.54 21.49,-31.77 34.98,-45.42 l -29.1,-92.99 78.9,-45.2 65.67,71.41 c 18.64,-4.68 37.7,-7.07 56.96,-7.19 l 45.57,-86.68 30.91,8.41 c -24.56,-35.08 -49.91,-153.73 -68.93,-258.57 m -1468.763,73.8 c -14.414,19.31 -25.125,41.55 -31.062,65.66 l 31.062,-34.48 v -31.18 M 564.328,1507 v 143.79 l 21.5,-6.09 c 3.695,-16.43 8.699,-32.52 14.949,-48.11 V 1558 l -36.449,-51 m 1630.102,75.05 -3.01,65.54 -0.66,14.33 c 16.65,9.82 32.02,21.6 45.9,35.12 l 93.43,-29.05 38.61,67.48 6.58,11.42 -72.37,65.93 c 4.68,18.63 7.1,37.78 7.31,57.02 l 86.56,45.51 -6.72,24.66 c 3.05,-0.1 4.97,-0.1 4.97,-0.1 0,0 22.02,-47.71 41.83,-77.86 l -9.58,-57.69 19.8,-8 3.02,-1.21 c 0.3,-6.38 0.59,-12.94 0.82,-19.46 -15.3,-3.39 -31.84,-11.27 -42.68,-28.47 -0.06,-0.09 -0.12,-0.18 -0.17,-0.27 -0.02,-0.03 -0.04,-0.07 -0.06,-0.1 -0.09,-0.14 -0.17,-0.27 -0.25,-0.41 v 0 c -7.51,-19.44 -9.04,-44.49 -9.04,-61.74 0,-11.95 0.73,-20.15 0.73,-20.15 0,0 -1.79,-0.71 -5.19,-1.91 -24.72,-9.21 -132.42,-49.74 -199.83,-80.59 m 682.31,52.23 c -49.2,0 -97.67,22.91 -128.46,65.98 -50.8,70.8 -34.4,169.4 36.4,220.1 27.84,19.94 59.95,29.53 91.76,29.53 49.19,0 97.65,-22.93 128.43,-65.93 50.81,-70.9 34.41,-169.5 -36.39,-220.2 -27.84,-19.9 -59.95,-29.48 -91.74,-29.48 m -812.12,121.03 c -51.72,0 -99.08,34.4 -113.27,86.62 -17.05,62.66 19.94,127.22 82.47,144.21 10.33,2.82 20.72,4.16 30.94,4.16 51.72,0 99.08,-34.4 113.27,-86.62 17.05,-62.66 -19.93,-127.22 -82.47,-144.21 -10.33,-2.81 -20.72,-4.16 -30.94,-4.16 M 564.328,1816.12 V 2976.4 h 855.632 l 15.42,-24.54 c -15.7,-27.9 -27.9,-57.6 -36.4,-88.5 l -159.6,-35.5 v -151.8 l 159.6,-35.6 c 8.03,-29.39 19.37,-57.8 33.84,-84.56 H 724.625 c -68.402,0 -123.844,-55.45 -123.848,-123.84 v -396.61 l -35.949,-32.35 35.949,-63.52 V 1834.9 c -1.75,-4.49 -3.398,-9.02 -4.949,-13.6 l -31.5,-5.18 m 1232.162,46.83 v 96.48 l 30.21,-27.46 c -4.68,-18.64 -7.07,-37.71 -7.15,-56.88 l -23.06,-12.14 m -2.61,692.11 c -108.3,0 -196.1,87.8 -196.1,196.1 0,108.3 87.8,196.1 196.1,196.1 108.3,0 196.1,-87.8 196.1,-196.1 0,-108.3 -87.8,-196.1 -196.1,-196.1"
         style="fill:#405158;fill-opacity:1;fill-rule:nonzero;stroke:none"
         id="path32" /><path
         d="M 3734.08,3056.86 H 461.98 c 7.2,104.5 94.301,187.1 200.598,187.1 H 3533.48 c 106.3,0 193.4,-82.6 200.6,-187.1"
         style="fill:#6ccb94;fill-opacity:1;fill-rule:nonzero;stroke:none"
         id="path34" /><path
         d="m 3734.08,3056.86 v 5 H 461.98 v -5 l 4.989,-0.34 c 7.015,101.88 91.961,182.45 195.609,182.44 H 3533.48 c 103.65,0.01 188.59,-80.56 195.62,-182.44 l 4.98,0.34 v 5 -5 l 4.99,0.35 c -7.39,107.11 -96.64,191.74 -205.59,191.75 H 662.578 v 0 c -108.945,-0.01 -198.199,-84.64 -205.586,-191.75 l -0.371,-5.35 H 3739.44 l -0.37,5.35 -4.99,-0.35"
         style="fill:#17282f;fill-opacity:1;fill-rule:nonzero;stroke:none"
         id="path36" /><path
         d="m 864.07,3150.41 c 0,-19.68 -15.953,-35.64 -35.636,-35.64 -19.684,0 -35.641,15.96 -35.641,35.64 0,19.68 15.957,35.64 35.641,35.64 19.683,0 35.636,-15.96 35.636,-35.64"
         style="fill:#17282f;fill-opacity:1;fill-rule:nonzero;stroke:none"
         id="path38" /><path
         d="m 1014.76,3150.41 c 0,-19.68 -15.959,-35.64 -35.643,-35.64 -19.683,0 -35.64,15.96 -35.64,35.64 0,19.68 15.957,35.64 35.64,35.64 19.684,0 35.643,-15.96 35.643,-35.64"
         style="fill:#17282f;fill-opacity:1;fill-rule:nonzero;stroke:none"
         id="path40" /><path
         d="m 1165.44,3150.41 c 0,-19.68 -15.95,-35.64 -35.63,-35.64 -19.69,0 -35.64,15.96 -35.64,35.64 0,19.68 15.95,35.64 35.64,35.64 19.68,0 35.63,-15.96 35.63,-35.64"
         style="fill:#17282f;fill-opacity:1;fill-rule:nonzero;stroke:none"
         id="path42" /><path
         d="m 3647.03,2981.4 h -5 V 1473.6 c 0,-50.69 -20.53,-96.55 -53.76,-129.8 -33.24,-33.24 -79.11,-53.79 -129.84,-53.79 H 747.828 C 658.66,1290 584.383,1353.67 567.836,1437.96 l -0.277,1.43 -1.114,1.17 -3.617,-3.45 h 5 v 0.4 0.48 l -0.094,0.48 c -2.238,11.38 -3.406,23.16 -3.406,35.13 V 2976.4 H 3647.03 v 5 h -5 5 v 5 H 554.328 V 1473.6 c 0,-12.62 1.231,-25.04 3.594,-37.06 l 4.906,0.97 h -5 v -0.4 -2.01 l 1.485,-1.55 3.617,3.45 -4.907,-0.96 c 17.454,-88.92 95.77,-156.02 189.805,-156.03 H 3458.43 c 106.96,0 193.6,86.73 193.6,193.59 v 1512.8 h -5 v -5"
         style="fill:#17282f;fill-opacity:1;fill-rule:nonzero;stroke:none"
         id="path44" /><path
         d="m 3549.5,2485.68 c -51.4,0 -92.99,41.61 -92.99,93 0,51.31 41.59,93.01 92.99,93.01 51.4,0 93,-41.7 93,-93.01 0,-51.39 -41.6,-93 -93,-93 z m 94.6,262.51 c -13.2,7.39 -27.3,13.19 -41.9,17.29 l -16.9,75.7 h -72 l -16.79,-75.7 c -14.71,-3.99 -28.81,-9.9 -42.01,-17.29 l -65,41.6 -50.89,-50.91 40.89,-65 c -7.5,-13.3 -13.3,-27.39 -17.3,-41.99 l -75.69,-16.81 v -72 l 75.69,-16.9 c 4,-14.8 9.8,-29 17.3,-42.3 l -41.6,-65.4 50.9,-50.9 65.4,41.61 c 13.2,-7.5 27.31,-13.3 42,-17.41 l 16.8,-75.6 h 72 l 16.9,75.6 c 14.61,4.11 28.7,10 41.9,17.41 l 3.3,-2.1 v 342.99 l -3,-1.89"
         style="fill:#17282f;fill-opacity:1;fill-rule:nonzero;stroke:none"
         id="path46" /><path
         d="m 1793.88,2555.06 c -108.3,0 -196.1,87.8 -196.1,196.1 0,108.3 87.8,196.1 196.1,196.1 108.3,0 196.1,-87.8 196.1,-196.1 0,-108.3 -87.8,-196.1 -196.1,-196.1 m 553,120.2 v 151.8 l -159.6,35.4 c -8.71,30.8 -20.9,60.6 -36.5,88.6 l 19.3,30.4 h -753.3 l 18.6,-29.6 c -15.7,-27.9 -27.9,-57.6 -36.4,-88.5 l -159.6,-35.5 v -151.8 l 159.6,-35.6 c 8.5,-31.1 20.7,-61.1 36.4,-89.2 l -87.7,-137.9 107.4,-107.3 137.8,87.7 c 28,-15.7 57.7,-28 88.6,-36.7 l 35.4,-159.4 h 151.8 l 35.7,159.4 c 30.8,8.7 60.4,21.1 88.3,36.7 l 137.9,-87.7 107.3,107.3 -87.1,137.9 c 15.5,28 27.79,57.6 36.5,88.4 l 159.6,35.6"
         style="fill:#17282f;fill-opacity:1;fill-rule:nonzero;stroke:none"
         id="path48" /><path
         d="m 1020.23,1821 c -57.601,64.01 -156.203,69.2 -220.199,11.6 -64.004,-57.59 -69.207,-156.2 -11.601,-220.2 57.597,-64 156.199,-69.1 220.2,-11.49 64,57.59 69.2,156.09 11.6,220.09 m 319.8,-188.1 6.4,120.4 -124.8,35.2 c -5.8,24.7 -14.4,48.8 -25.6,71.6 l 75.4,105.9 -80.8,89.7 -113,-63.9 c -21.6,13.5 -44.6,24.6 -68.8,32.9 l -21.603,128 -120.399,6.4 -34.801,-125.2 c -24.8,-5.5 -48.797,-14.1 -71.597,-25.4 l -105.801,75.4 -89.801,-80.8 64,-113.09 c -13.797,-21.51 -24.801,-44.51 -33,-68.71 l -36.5,-6 v -163.1 l 26.5,-7.5 c 5.602,-24.9 14.203,-49 25.598,-71.8 l -52.098,-72.89 3.5,-62.5 v -0.4 l 0.102,-0.11 53.699,-59.6 113.203,63.9 c 21.594,-13.9 44.801,-25.1 68.996,-33.3 l 20.602,-122.9 v -0.09 l 1,-5.11 120.394,-6.4 3.207,11.51 v 0.09 l 31.594,113.6 c 25.005,5.6 49.005,14.1 72.005,25.4 l 105.6,-75.29 89.8,80.69 -63.8,113.2 c 13.6,21.5 24.6,44.5 32.6,68.61 l 128.2,21.59"
         style="fill:#17282f;fill-opacity:1;fill-rule:nonzero;stroke:none"
         id="path50" /><path
         d="m 2095.56,1759.47 c -62.65,-17.05 -127.21,19.93 -144.21,82.46 -17.05,62.66 19.94,127.22 82.47,144.21 62.66,17.06 127.22,-19.93 144.21,-82.46 17.05,-62.66 -19.93,-127.22 -82.47,-144.21 m 207.35,53.35 c 4.68,18.63 7.1,37.78 7.31,57.02 l 86.56,45.51 -23.92,87.82 -97.7,-4.57 c -9.89,16.48 -21.71,31.74 -35.11,45.36 l 28.95,93.47 -78.89,45.19 -66.01,-72.02 c -18.58,4.55 -37.64,6.94 -56.84,7.24 l -45.7,86.63 -87.69,-23.86 4.63,-97.84 c -16.47,-9.88 -31.75,-21.7 -45.45,-35.06 l -93.51,28.86 -45.25,-78.78 72.41,-65.82 c -4.68,-18.64 -7.07,-37.71 -7.15,-56.88 l -86.72,-45.66 23.92,-87.82 97.83,4.63 c 9.76,-16.54 21.49,-31.77 34.98,-45.42 l -29.1,-92.99 78.9,-45.2 65.67,71.41 c 18.64,-4.68 37.7,-7.07 56.96,-7.19 l 45.57,-86.68 87.7,23.86 -3.84,83.56 -0.66,14.33 c 16.65,9.82 32.02,21.6 45.9,35.12 l 93.43,-29.05 38.61,67.48 6.58,11.42 -72.37,65.93"
         style="fill:#17282f;fill-opacity:1;fill-rule:nonzero;stroke:none"
         id="path52" /><path
         d="m 2968.48,1663.76 c -70.9,-50.7 -169.5,-34.4 -220.2,36.5 -50.8,70.8 -34.4,169.4 36.4,220.1 70.9,50.8 169.5,34.4 220.19,-36.4 50.81,-70.9 34.41,-169.5 -36.39,-220.2 m 338.1,-5.4 20,120.5 -122,49.11 c -2.8,25.69 -8.7,50.89 -17.5,75.19 l 87.79,97.8 -71.09,99.4 -121.1,-51.4 c -20.1,16.1 -42,29.7 -65.4,40.6 l -7.1,131.4 -120.6,19.9 -49.4,-121.5 c -25.6,-3 -50.71,-8.9 -74.91,-17.6 l -98.09,87.8 -99.3,-71.1 51.5,-121 c -14.2,-17.8 -26.5,-36.8 -36.7,-56.99 -1.4,-2.81 -2.81,-5.61 -4.1,-8.41 l -131.3,-7.3 -20,-120.4 19.8,-8 102.2,-41.2 c 2.8,-25.5 8.6,-50.7 17.5,-74.9 l -87.8,-98.1 71.1,-99.3 121.1,51.6 c 20,-16.3 42,-30 65.3,-40.9 l 6.8,-130.8 120.5,-19.9 49.3,120.6 c 25.7,2.8 50.9,8.7 75.1,17.6 l 97.9,-87.9 99.4,71.2 -51.5,121.11 c 16.4,20.09 30.3,42.19 41.29,65.69 l 131.31,7.2"
         style="fill:#17282f;fill-opacity:1;fill-rule:nonzero;stroke:none"
         id="path54" /><path
         d="M 1672.65,1000.61 H 724.625 c -65.641,0 -118.848,53.2 -118.848,118.84 v 1312.61 c 0,65.63 53.207,118.85 118.848,118.85 h 948.025 c 65.63,0 118.84,-53.22 118.84,-118.85 V 1119.45 c 0,-65.64 -53.21,-118.84 -118.84,-118.84"
         style="fill:#6ccb94;fill-opacity:1;fill-rule:nonzero;stroke:none"
         id="path56" /><path
         d="m 1672.65,1000.61 v 5 H 724.625 c -31.453,0.01 -59.887,12.74 -80.504,33.34 -20.609,20.62 -33.34,49.05 -33.344,80.5 v 1312.61 c 0.004,31.45 12.735,59.88 33.344,80.5 20.617,20.61 49.051,33.34 80.504,33.35 h 948.025 c 31.45,-0.01 59.88,-12.74 80.5,-33.35 20.61,-20.62 33.34,-49.05 33.34,-80.5 V 1119.45 c 0,-31.45 -12.73,-59.88 -33.34,-80.5 -20.62,-20.6 -49.05,-33.33 -80.5,-33.34 v -5 -5.001 c 68.39,0.012 123.84,55.441 123.84,123.841 v 1312.61 c 0,68.39 -55.44,123.84 -123.84,123.84 H 724.625 c -68.402,0 -123.844,-55.45 -123.848,-123.84 V 1119.45 c 0.004,-68.4 55.446,-123.829 123.848,-123.841 h 948.025 v 5.001"
         style="fill:#17282f;fill-opacity:1;fill-rule:nonzero;stroke:none"
         id="path58" /><path
         d="m 1672.65,1000.61 v 5 H 724.625 c -31.453,0.01 -59.887,12.74 -80.504,33.34 -20.609,20.62 -33.34,49.05 -33.344,80.5 v 1312.61 c 0.004,31.45 12.735,59.88 33.344,80.5 20.617,20.61 49.051,33.34 80.504,33.35 h 948.025 c 31.45,-0.01 59.88,-12.74 80.5,-33.35 20.61,-20.62 33.34,-49.05 33.34,-80.5 V 1119.45 c 0,-31.45 -12.73,-59.88 -33.34,-80.5 -20.62,-20.6 -49.05,-33.33 -80.5,-33.34 v -5 0"
         style="fill:#50c183;fill-opacity:1;fill-rule:nonzero;stroke:none"
         id="path60" /><path
         d="m 1672.65,1000.61 v 0 5 c 31.45,0.01 59.88,12.74 80.5,33.34 20.61,20.62 33.34,49.05 33.34,80.5 v 1312.61 c 0,31.45 -12.73,59.88 -33.34,80.5 -20.62,20.61 -49.05,33.34 -80.5,33.35 H 724.625 c -31.453,-0.01 -59.887,-12.74 -80.504,-33.35 -20.609,-20.62 -33.34,-49.05 -33.344,-80.5 V 1119.45 c 0.004,-31.45 12.735,-59.88 33.344,-80.5 20.617,-20.6 49.051,-33.33 80.504,-33.34 h 948.025 v -5 H 724.625 c -65.641,0 -118.848,53.2 -118.848,118.84 v 1312.61 c 0,65.63 53.207,118.85 118.848,118.85 h 948.025 c 65.63,0 118.84,-53.22 118.84,-118.85 V 1119.45 c 0,-65.64 -53.21,-118.84 -118.84,-118.84"
         style="fill:#111d23;fill-opacity:1;fill-rule:nonzero;stroke:none"
         id="path62" /><path
         d="m 1901.87,2314.97 v -1312.6 c 0,-65.698 -53.2,-118.909 -118.9,-118.909 H 834.973 c -65.602,0 -118.801,53.211 -118.801,118.909 v 1312.6 c 0,65.6 53.199,118.8 118.801,118.8 h 947.997 c 65.7,0 118.9,-53.2 118.9,-118.8"
         style="fill:#ffffff;fill-opacity:1;fill-rule:nonzero;stroke:none"
         id="path64" /><path
         d="m 1901.87,2314.97 h -5 v -1312.6 c 0,-31.491 -12.73,-59.929 -33.35,-80.561 -20.62,-20.61 -49.06,-33.34 -80.55,-33.348 H 834.973 c -31.438,0.008 -59.852,12.738 -80.465,33.348 -20.602,20.632 -33.332,49.07 -33.336,80.561 v 1312.6 c 0.004,31.43 12.734,59.85 33.336,80.46 20.609,20.6 49.027,33.33 80.465,33.34 h 947.997 c 31.49,-0.01 59.93,-12.74 80.55,-33.34 20.62,-20.61 33.35,-49.03 33.35,-80.46 h 5 5 c 0,68.36 -55.44,123.79 -123.9,123.8 H 834.973 c -68.368,-0.01 -123.797,-55.44 -123.801,-123.8 v -1312.6 c 0.004,-68.46 55.433,-123.901 123.801,-123.909 h 947.997 c 68.46,0.008 123.9,55.449 123.9,123.909 v 1312.6 h -5"
         style="fill:#17282f;fill-opacity:1;fill-rule:nonzero;stroke:none"
         id="path66" /><path
         d="m 1901.87,2314.97 v -70.31 H 716.172 v 70.31 c 0,65.6 53.199,118.8 118.801,118.8 h 947.997 c 65.7,0 118.9,-53.2 118.9,-118.8"
         style="fill:#6ccb94;fill-opacity:1;fill-rule:nonzero;stroke:none"
         id="path68" /><path
         d="m 1901.87,2314.97 h -5 v -65.31 H 721.172 v 65.31 c 0.004,31.43 12.734,59.85 33.336,80.46 20.609,20.6 49.027,33.33 80.465,33.34 h 947.997 c 31.49,-0.01 59.93,-12.74 80.55,-33.34 20.62,-20.61 33.35,-49.03 33.35,-80.46 h 5 5 c 0,68.36 -55.44,123.79 -123.9,123.8 H 834.973 c -68.368,-0.01 -123.797,-55.44 -123.801,-123.8 v -75.31 H 1906.87 v 75.31 h -5"
         style="fill:#17282f;fill-opacity:1;fill-rule:nonzero;stroke:none"
         id="path70" /><path
         d="M 1119.38,2114.31 H 827.676 v 48.93 h 291.704 v -48.93"
         style="fill:#6ccb94;fill-opacity:1;fill-rule:nonzero;stroke:none"
         id="path72" /><path
         d="M 1119.38,1675.65 H 827.676 v 48.94 h 291.704 v -48.94"
         style="fill:#6ccb94;fill-opacity:1;fill-rule:nonzero;stroke:none"
         id="path74" /><path
         d="M 1119.38,1277.87 H 827.676 v 48.92 h 291.704 v -48.92"
         style="fill:#6ccb94;fill-opacity:1;fill-rule:nonzero;stroke:none"
         id="path76" /><path
         d="M 1656.17,2006.22 H 827.676 v 35.89 h 828.494 v -35.89"
         style="fill:#17282f;fill-opacity:1;fill-rule:nonzero;stroke:none"
         id="path78" /><path
         d="M 1506.78,1938.44 H 827.676 v 34.97 h 679.104 v -34.97"
         style="fill:#17282f;fill-opacity:1;fill-rule:nonzero;stroke:none"
         id="path80" /><path
         d="M 1595.71,1870.92 H 827.676 v 34.97 h 768.034 v -34.97"
         style="fill:#17282f;fill-opacity:1;fill-rule:nonzero;stroke:none"
         id="path82" /><path
         d="M 1595.71,1803.46 H 827.676 v 34.97 h 768.034 v -34.97"
         style="fill:#17282f;fill-opacity:1;fill-rule:nonzero;stroke:none"
         id="path84" /><path
         d="M 1656.17,1608.43 H 827.676 v 35.89 h 828.494 v -35.89"
         style="fill:#17282f;fill-opacity:1;fill-rule:nonzero;stroke:none"
         id="path86" /><path
         d="M 1506.78,1540.66 H 827.676 v 34.97 h 679.104 v -34.97"
         style="fill:#17282f;fill-opacity:1;fill-rule:nonzero;stroke:none"
         id="path88" /><path
         d="M 1595.71,1473.14 H 827.676 v 34.97 h 768.034 v -34.97"
         style="fill:#17282f;fill-opacity:1;fill-rule:nonzero;stroke:none"
         id="path90" /><path
         d="M 1656.17,1171.61 H 827.676 v 35.89 h 828.494 v -35.89"
         style="fill:#17282f;fill-opacity:1;fill-rule:nonzero;stroke:none"
         id="path92" /><path
         d="M 1506.78,1103.83 H 827.676 v 34.98 h 679.104 v -34.98"
         style="fill:#17282f;fill-opacity:1;fill-rule:nonzero;stroke:none"
         id="path94" /><path
         d="M 1595.71,1036.31 H 827.676 v 34.98 h 768.034 v -34.98"
         style="fill:#17282f;fill-opacity:1;fill-rule:nonzero;stroke:none"
         id="path96" /><path
         d="m 3238.13,3343.9 v -530.5 c 0,-78.3 -63.4,-141.7 -141.7,-141.7 h -1221.9 c -78.2,0 -141.7,63.4 -141.7,141.7 v 530.5 c 0,78.3 63.5,141.8 141.7,141.8 h 1221.9 c 78.3,0 141.7,-63.5 141.7,-141.8"
         style="fill:#ffffff;fill-opacity:1;fill-rule:nonzero;stroke:none"
         id="path98" /><path
         d="m 3238.13,3343.9 h -5 v -530.5 c -0.01,-37.78 -15.29,-71.93 -40.03,-96.68 -24.74,-24.74 -58.89,-40.02 -96.67,-40.02 h -1221.9 c -37.74,0 -71.88,15.28 -96.64,40.03 -24.75,24.75 -40.06,58.89 -40.06,96.67 v 530.5 c 0,37.79 15.31,71.96 40.06,96.73 24.76,24.76 58.91,40.07 96.64,40.07 h 1221.9 c 37.78,0 71.92,-15.31 96.67,-40.07 24.74,-24.77 40.02,-58.94 40.03,-96.73 h 5 5 c -0.01,81.06 -65.64,146.8 -146.7,146.8 h -1221.9 c -80.97,0 -146.7,-65.73 -146.7,-146.8 v -530.5 c 0,-81.06 65.74,-146.7 146.7,-146.7 h 1221.9 c 81.06,0 146.7,65.64 146.7,146.7 v 530.5 h -5"
         style="fill:#171717;fill-opacity:1;fill-rule:nonzero;stroke:none"
         id="path100" /><path
         d="m 3238.13,3343.9 v -12.1 h -1505.3 v 12.1 c 0,78.3 63.5,141.8 141.7,141.8 h 1221.9 c 78.3,0 141.7,-63.5 141.7,-141.8"
         style="fill:#6ccb94;fill-opacity:1;fill-rule:nonzero;stroke:none"
         id="path102" /><path
         d="m 3238.13,3343.9 h -5 v -7.1 h -1495.3 v 7.1 c 0,37.79 15.31,71.96 40.06,96.73 24.76,24.76 58.91,40.07 96.64,40.07 h 1221.9 c 37.78,0 71.92,-15.31 96.67,-40.07 24.74,-24.77 40.02,-58.94 40.03,-96.73 h 5 5 c -0.01,81.06 -65.64,146.8 -146.7,146.8 h -1221.9 c -80.97,0 -146.7,-65.73 -146.7,-146.8 v -12.1 -5 h 1515.3 v 17.1 h -5"
         style="fill:#17282f;fill-opacity:1;fill-rule:nonzero;stroke:none"
         id="path104" /><path
         d="m 1953.97,3383.41 c -8.48,-8.48 -22.22,-8.48 -30.7,0 -8.47,8.47 -8.47,22.21 0,30.69 8.48,8.47 22.22,8.47 30.7,0 8.47,-8.48 8.47,-22.22 0,-30.69"
         style="fill:#17282f;fill-opacity:1;fill-rule:nonzero;stroke:none"
         id="path106" /><path
         d="m 2054.78,3383.41 c -8.48,-8.48 -22.22,-8.48 -30.7,0 -8.47,8.47 -8.47,22.21 0,30.69 8.48,8.47 22.22,8.47 30.7,0 8.47,-8.48 8.47,-22.22 0,-30.69"
         style="fill:#17282f;fill-opacity:1;fill-rule:nonzero;stroke:none"
         id="path108" /><path
         d="m 2155.59,3383.41 c -8.48,-8.48 -22.23,-8.48 -30.71,0 -8.46,8.47 -8.46,22.21 0,30.69 8.48,8.47 22.23,8.47 30.71,0 8.46,-8.48 8.46,-22.22 0,-30.69"
         style="fill:#17282f;fill-opacity:1;fill-rule:nonzero;stroke:none"
         id="path110" /><path
         d="m 2240.86,2813.92 h -40 c -2.76,0 -5,-2.24 -5,-5 0,-2.76 2.24,-5 5,-5 h 40 c 2.76,0 5,2.24 5,5 0,2.76 -2.24,5 -5,5 z m -80,0 h -40 c -2.76,0 -5,-2.24 -5,-5 0,-2.76 2.24,-5 5,-5 h 40 c 2.76,0 5,2.24 5,5 0,2.76 -2.24,5 -5,5 z m -80,0 h -40 c -2.76,0 -5,-2.24 -5,-5 0,-2.76 2.24,-5 5,-5 h 40 c 2.76,0 5,2.24 5,5 0,2.76 -2.24,5 -5,5 z m -80,0 h -40 c -2.76,0 -5,-2.24 -5,-5 0,-2.76 2.24,-5 5,-5 h 40 c 2.76,0 5,2.24 5,5 0,2.76 -2.24,5 -5,5 z m -80,0 h -40 c -2.76,0 -5,-2.24 -5,-5 0,-2.76 2.24,-5 5,-5 h 40 c 2.76,0 5,2.24 5,5 0,2.76 -2.24,5 -5,5 z m -80,0 h -7.05 v 22.96 c 0,2.76 -2.23,5 -5,5 -2.76,0 -5,-2.24 -5,-5 v -27.96 c 0,-1.31 0.54,-2.6 1.47,-3.53 0.93,-0.93 2.22,-1.47 3.53,-1.47 h 12.05 c 2.76,0 5,2.24 5,5 0,2.76 -2.24,5 -5,5 z m -7.05,62.96 v 40 c 0,2.76 -2.23,5 -5,5 -2.76,0 -5,-2.24 -5,-5 v -40 c 0,-2.77 2.24,-5 5,-5 2.77,0 5,2.23 5,5 z m 0,80 v 40 c 0,2.76 -2.23,5 -5,5 -2.76,0 -5,-2.24 -5,-5 v -40 c 0,-2.77 2.24,-5 5,-5 2.77,0 5,2.23 5,5 z m 0,80 v 40 c 0,2.76 -2.23,5 -5,5 -2.76,0 -5,-2.24 -5,-5 v -40 c 0,-2.77 2.24,-5 5,-5 2.77,0 5,2.23 5,5 z m 0,80 v 40 c 0,2.76 -2.23,5 -5,5 -2.76,0 -5,-2.24 -5,-5 v -40 c 0,-2.77 2.24,-5 5,-5 2.77,0 5,2.23 5,5 z m 0,80 v 37.37 h -5 v -5 h 2.63 c 2.76,0 5,2.24 5,5 0,2.76 -2.24,5 -5,5 h -2.63 c -1.31,0 -2.6,-0.54 -3.53,-1.46 -0.93,-0.93 -1.47,-2.22 -1.47,-3.54 v -37.37 c 0,-2.77 2.24,-5 5,-5 2.77,0 5,2.23 5,5 z m 37.63,32.37 h 40 c 2.76,0 5,2.24 5,5 0,2.76 -2.24,5 -5,5 h -40 c -2.76,0 -5,-2.24 -5,-5 0,-2.76 2.24,-5 5,-5 z m 80,0 h 40 c 2.76,0 5,2.24 5,5 0,2.76 -2.24,5 -5,5 h -40 c -2.76,0 -5,-2.24 -5,-5 0,-2.76 2.24,-5 5,-5 z m 80,0 h 40 c 2.76,0 5,2.24 5,5 0,2.76 -2.24,5 -5,5 h -40 c -2.76,0 -5,-2.24 -5,-5 0,-2.76 2.24,-5 5,-5 z m 80,0 h 40 c 2.76,0 5,2.24 5,5 0,2.76 -2.24,5 -5,5 h -40 c -2.76,0 -5,-2.24 -5,-5 0,-2.76 2.24,-5 5,-5 z m 80,0 h 40 c 2.76,0 5,2.24 5,5 0,2.76 -2.24,5 -5,5 h -40 c -2.76,0 -5,-2.24 -5,-5 0,-2.76 2.24,-5 5,-5 z m 80,0 h 40 c 2.76,0 5,2.24 5,5 0,2.76 -2.24,5 -5,5 h -40 c -2.76,0 -5,-2.24 -5,-5 0,-2.76 2.24,-5 5,-5 z m 44.42,-25.58 v -40 c 0,-2.76 2.24,-5 5,-5 2.76,0 5,2.24 5,5 v 40 c 0,2.76 -2.24,5 -5,5 -2.76,0 -5,-2.24 -5,-5 z m 0,-80 v -40 c 0,-2.76 2.24,-5 5,-5 2.76,0 5,2.24 5,5 v 40 c 0,2.76 -2.24,5 -5,5 -2.76,0 -5,-2.24 -5,-5 z m 0,-80 v -40 c 0,-2.76 2.24,-5 5,-5 2.76,0 5,2.24 5,5 v 40 c 0,2.76 -2.24,5 -5,5 -2.76,0 -5,-2.24 -5,-5 z m 0,-80 v -40 c 0,-2.76 2.24,-5 5,-5 2.76,0 5,2.24 5,5 v 40 c 0,2.76 -2.24,5 -5,5 -2.76,0 -5,-2.24 -5,-5 z m 0,-80 v -40 c 0,-2.76 2.24,-5 5,-5 2.76,0 5,2.24 5,5 v 40 c 0,2.76 -2.24,5 -5,5 -2.76,0 -5,-2.24 -5,-5 z m 5,-69.75 h -40 c -2.76,0 -5,-2.24 -5,-5 0,-2.76 2.24,-5 5,-5 h 40 c 2.76,0 5,2.24 5,5 0,2.76 -2.24,5 -5,5"
         style="fill:#17282f;fill-opacity:1;fill-rule:nonzero;stroke:none"
         id="path112" /><path
         d="m 2963.07,3204.38 h -566.29 v 29.87 h 566.29 v -29.87"
         style="fill:#17282f;fill-opacity:1;fill-rule:nonzero;stroke:none"
         id="path114" /><path
         d="m 2831.15,3142.44 h -434.37 v 29.86 h 434.37 v -29.86"
         style="fill:#17282f;fill-opacity:1;fill-rule:nonzero;stroke:none"
         id="path116" /><path
         d="m 3043.61,3080.5 h -646.83 v 30.21 h 646.83 v -30.21"
         style="fill:#17282f;fill-opacity:1;fill-rule:nonzero;stroke:none"
         id="path118" /><path
         d="m 2947.57,3020.32 h -550.79 v 30.22 h 550.79 v -30.22"
         style="fill:#17282f;fill-opacity:1;fill-rule:nonzero;stroke:none"
         id="path120" /><path
         d="m 2522.86,260.141 c 0,0 -262.9,-75.403 -299.6,-88.403 -33.41,-11.789 -123.9,-43.488 -191.8,-33.699 -6.7,1 -13.2,2.41 -19.4,4.199 -68.8,20.5 -99.7,39.602 -108.7,82.903 -9.1,43.398 25.2,75.097 58.2,95.5 33,20.398 212,41.699 212,41.699 l 43.2,-12.699 h 0.1 l 306,-89.5"
         style="fill:#6ccb94;fill-opacity:1;fill-rule:nonzero;stroke:none"
         id="path122" /><path
         d="m 2031.46,138.039 c -6.7,1 -13.2,2.41 -19.4,4.199 -68.8,20.5 -99.7,39.602 -108.7,82.903 -9.1,43.398 25.2,75.097 58.2,95.5 33,20.398 212,41.699 212,41.699 l 43.2,-12.699 c -39.1,-17.993 -184.9,-27.993 -216.7,-46.289 -31.8,-18.301 -47.2,-52.813 -28.4,-99.411 10,-24.793 36.8,-48.8 59.8,-65.902"
         style="fill:#ffffff;fill-opacity:1;fill-rule:nonzero;stroke:none"
         id="path124" /><path
         d="m 2482.05,254.262 c -0.03,-0.012 -49.42,-12.801 -108.63,-29.703 -59.23,-16.911 -128.17,-37.868 -167.77,-54.418 -37.17,-15.571 -91.37,-27.039 -142.92,-27.02 -27.42,-0.012 -54.09,3.231 -77.05,10.641 -22.98,7.406 -42.14,18.918 -55.05,35.316 -15.98,20.301 -22.29,39.231 -22.3,56.024 0.01,18.628 7.79,35 20.09,47.976 12.29,12.961 29.11,22.363 46.53,26.57 v 0 c 44.47,10.813 127.64,26.954 187.09,26.922 11.21,0 21.56,-0.57 30.58,-1.832 2.74,-0.379 5.26,1.532 5.64,4.262 0.39,2.738 -1.52,5.262 -4.26,5.648 -9.64,1.34 -20.41,1.922 -31.96,1.922 -61.1,-0.019 -144.4,-16.289 -189.45,-27.199 v 0 c -19.26,-4.68 -37.66,-14.922 -51.42,-29.41 -13.75,-14.461 -22.85,-33.352 -22.84,-54.859 -0.01,-19.372 7.38,-40.571 24.45,-62.211 14.51,-18.411 35.56,-30.832 59.83,-38.653 24.29,-7.816 51.92,-11.117 80.12,-11.117 53.03,0.02 108.08,11.629 146.78,27.789 38.68,16.192 107.61,37.192 166.66,54.031 29.54,8.43 56.64,15.848 76.36,21.149 19.71,5.301 31.99,8.48 32.03,8.488 2.67,0.692 4.27,3.422 3.58,6.09 -0.69,2.684 -3.42,4.281 -6.09,3.594"
         style="fill:#17282f;fill-opacity:1;fill-rule:nonzero;stroke:none"
         id="path126" /><path
         d="m 2037.82,146.02 -0.73,0.421 c -3.83,2.188 -21.77,12.969 -38.52,29.899 -16.81,16.949 -32.09,39.828 -32.04,66.039 0.01,9.32 1.89,19.152 6.38,29.562 5.42,12.579 17.12,21.789 33.6,28.887 24.63,10.633 59.14,15.922 93.71,21.293 34.62,5.43 69.29,10.918 95.22,23.051 2.5,1.168 3.57,4.148 2.4,6.648 -1.18,2.5 -4.15,3.571 -6.65,2.399 -31.83,-15.02 -81.78,-19.879 -126.89,-27.797 -22.59,-4.004 -44.03,-8.793 -61.75,-16.41 -17.65,-7.582 -31.93,-18.203 -38.82,-34.102 -5.01,-11.59 -7.2,-22.851 -7.2,-33.531 0.07,-32.277 19.59,-58.469 38.49,-76.57 18.99,-18.137 37.77,-28.418 38,-28.559 2.42,-1.32 5.46,-0.441 6.79,1.98 1.32,2.418 0.44,5.461 -1.99,6.79"
         style="fill:#17282f;fill-opacity:1;fill-rule:nonzero;stroke:none"
         id="path128" /><path
         d="m 3323.56,125.852 c -2.7,-26.9106 -12.2,-52.7114 -39.4,-68.7114 -18.1,-10.6992 -43.9,-17.0898 -80.8,-16.6914 -92.2,1.1992 -265.5,67.1018 -265.5,67.1018 l -162.3,89.687 84.4,133.614 23.1,36.597 59.7,-13.41 c 0,0 49.4,-28 99.1,-50.289 49.69,-22.309 170.3,-27.012 212.8,-61.41 42.5,-34.301 73.5,-71.699 68.9,-116.488"
         style="fill:#6ccb94;fill-opacity:1;fill-rule:nonzero;stroke:none"
         id="path130" /><path
         d="m 3323.56,125.852 c -2.7,-26.9106 -12.2,-52.7114 -39.4,-68.7114 5.1,20.8985 9.3,49.8004 -4.6,81.0004 -18.01,40.699 -77.1,76.597 -154.71,82.609 -77.5,5.988 -136.99,42.289 -168.09,58.488 -24.3,12.602 -75.5,40.102 -96.8,51.614 l 23.1,36.597 59.7,-13.41 c 0,0 49.4,-28 99.1,-50.289 49.69,-22.309 170.3,-27.012 212.8,-61.41 42.5,-34.301 73.5,-71.699 68.9,-116.488"
         style="fill:#ffffff;fill-opacity:1;fill-rule:nonzero;stroke:none"
         id="path132" /><path
         d="M 2809.04,167.762 C 2925.11,101.27 3057.82,53.3789 3190.8,37.3711 c 8.9,-1.0703 18.29,-1.8828 27.7,-1.8828 11.11,0 22.26,1.1211 32.64,4.3711 10.37,3.25 20,8.7109 27.64,17.289 10.64,11.9532 15.17,27.8399 15.18,43.3316 0,2.27 -0.1,4.54 -0.3,6.79 -1.9,22.128 -12.15,41.808 -26.72,57.96 -14.58,16.161 -33.51,28.899 -53.31,37.418 -39.41,16.891 -82.17,20.801 -122.53,29.891 -40.21,9.012 -79.24,23.289 -115.77,42.352 -29.05,15.109 -57.79,34.05 -91.37,41.211 -7.42,1.57 -15.12,2.367 -22.84,2.367 -13.82,0 -27.71,-2.571 -40.09,-8.141 -12.36,-5.558 -23.23,-14.199 -30.57,-26.199 -1.44,-2.359 -0.7,-5.43 1.66,-6.879 2.35,-1.441 5.43,-0.699 6.87,1.66 6.16,10.059 15.29,17.399 26.15,22.301 10.85,4.891 23.4,7.269 35.98,7.258 7.02,0.011 14.04,-0.731 20.77,-2.149 31.13,-6.558 59.2,-24.8 88.82,-40.3 37.3,-19.461 77.14,-34.04 118.2,-43.239 41.23,-9.211 83.33,-13.191 120.77,-29.32 18.61,-7.992 36.41,-20.031 49.84,-34.93 13.44,-14.922 22.5,-32.59 24.18,-52.121 0.17,-1.961 0.26,-3.949 0.26,-5.93 0,-13.5816 -4.04,-27.0698 -12.64,-36.6792 -6.27,-7.0195 -14.13,-11.5508 -23.17,-14.4024 -9.03,-2.8398 -19.21,-3.9179 -29.65,-3.9101 -8.84,0 -17.85,0.7617 -26.5,1.8008 -131.42,15.8203 -262.98,63.2499 -377.99,129.1409 -2.4,1.379 -5.45,0.55 -6.82,-1.852 -1.38,-2.387 -0.55,-5.449 1.85,-6.816"
         style="fill:#17282f;fill-opacity:1;fill-rule:nonzero;stroke:none"
         id="path134" /><path
         d="m 3266.5,44.7188 c 31.04,15.9414 56.7,45.1601 62.03,80.3902 0.67,4.493 1,8.993 1,13.469 -0.07,36.953 -21.8,71.801 -50.9,94.141 -32.55,24.929 -72.68,36.359 -111.79,44.519 -39.11,8.102 -78.59,13.551 -114.83,27.723 -23.85,9.301 -47.93,22.687 -72.46,33.879 -24.52,11.16 -49.6,20.199 -75.66,20.211 -8.9,0 -17.9,-1.063 -26.96,-3.473 -2.67,-0.707 -4.26,-3.449 -3.55,-6.109 0.71,-2.668 3.45,-4.258 6.12,-3.551 8.18,2.172 16.29,3.133 24.39,3.133 23.68,0.019 47.47,-8.34 71.52,-19.313 24.04,-10.949 48.24,-24.429 72.96,-34.097 37.74,-14.711 77.79,-20.153 116.43,-28.2 38.65,-8.023 77.26,-19.25 107.75,-42.652 27.12,-20.75 47.05,-53.348 46.98,-86.211 0,-3.988 -0.29,-8 -0.89,-11.988 -4.61,-31.1798 -27.99,-58.2697 -56.7,-72.9689 -2.46,-1.2617 -3.43,-4.2813 -2.17,-6.7422 1.26,-2.4492 4.27,-3.418 6.73,-2.1601"
         style="fill:#17282f;fill-opacity:1;fill-rule:nonzero;stroke:none"
         id="path136" /><path
         d="m 2943.16,932.852 c -9.5,-4.903 27.3,97.098 9.8,120.188 -17.5,23.21 -69.9,20.9 -69.9,20.9 l 4.5,27.9 c 0.6,3.11 31.1,159.5 31.1,159.5 l 10.3,12.3 c 0,0 106.8,-183.1 125.89,-247.6 0,0 -116.39,-93.188 -111.69,-93.188 m -690.4,134.788 c -20.2,-14.29 -9.4,-69.788 -9.4,-69.788 l -34.4,30.288 86.29,212.21 36.81,-162.9 c 0,0 -59.1,4.39 -79.3,-9.81 m 741.9,508.8 -274.6,104.5 -3.4,1.3 c 0,0 1,7.31 1.8,17.9 1.7,21.91 2.6,57.6 -7.7,69.7 -15.3,17.9 -58.7,2.9 -101,22.31 -42.3,19.39 -120.6,-15.31 -120.6,-15.31 0,0 -56.5,10.4 -81.4,-30.4 -12.7,-32.9 -8.31,-81.89 -8.31,-81.89 0,0 -1.79,-0.71 -5.19,-1.91 -32.71,-12.19 -210.7,-79.2 -248.4,-106.1 -41.6,-29.49 -87.6,-331.99 -102.4,-420.79 -14.8,-88.91 -41.1,-168.91 -27.7,-199.5 13.3,-30.5 204.6,-177.809 314.6,-215.801 110,-38.109 500.3,-26.91 500.3,-26.91 0,0 6.4,1.699 17.7,5.301 66,21.211 300.2,108.5 424.4,314.41 0,0 -120.3,394.6 -278.1,563.19"
         style="fill:#6ccb94;fill-opacity:1;fill-rule:nonzero;stroke:none"
         id="path138" /><path
         d="m 2476.19,2238.3 -141.73,-150.48 c 0,0 -19.54,-17.27 -11.77,-60.92 7.77,-43.65 25.86,-81.15 39.52,-84.05 13.66,-2.91 32.82,-2.94 32.82,-2.94 0,0 30.37,-65.82 51.88,-91.69 0,0 7.5,-101.59 3.5,-129.8 0,0 50.92,-44.48 98.88,-50.13 47.96,-5.66 122.06,67.83 122.06,67.83 l 18.37,89.95 c 0,0 43.47,66 46.44,83.57 2.96,17.57 22.84,13.06 32.61,21.73 9.77,8.67 32.37,47.43 36.1,84.06 3.74,36.62 4,78.69 -38.55,66.34 -36.87,9.9 -13.79,87.84 -13.79,87.84 l -64.78,57.16 -211.56,11.53"
         style="fill:#ffffff;fill-opacity:1;fill-rule:nonzero;stroke:none"
         id="path140" /><path
         d="m 2717.9,1693.53 c 0.19,2.01 0.38,4.23 0.56,6.61 v 0 0 c 1.7,21.91 2.6,57.6 -7.7,69.7 11.45,-13.4 9.06,-55.82 7.14,-76.31"
         style="fill:#849193;fill-opacity:1;fill-rule:nonzero;stroke:none"
         id="path142" /><path
         d="m 2587.46,1536.44 -30.8,94.7 -16.9,-94.7 c -34,14.81 -137.7,104.7 -137.7,104.7 0,0 -3.5,8.41 -7.8,21.5 3.4,1.2 5.19,1.91 5.19,1.91 v 0 0 c 0,0 -0.73,8.2 -0.73,20.15 0,17.25 1.53,42.3 9.04,61.74 v 0 c 0.08,0.14 0.16,0.27 0.25,0.41 0.02,0.03 0.04,0.07 0.06,0.1 0.05,0.09 0.11,0.18 0.17,0.27 10.84,17.2 27.38,25.08 42.68,28.47 0.85,-23.35 1.08,-46.08 -0.51,-57.27 0,0 50.92,-44.48 98.88,-50.13 1.77,-0.21 3.59,-0.31 5.43,-0.31 47.92,0 116.63,68.14 116.63,68.14 l 8.93,43.75 c 13.48,-0.93 24.28,-2.78 30.48,-10.03 v 0 c 10.3,-12.1 9.4,-47.79 7.7,-69.7 v 0 l -5.7,-35.59 v 0 0 l -23.55,-32.02 c -38.26,-43.74 -101.75,-96.09 -101.75,-96.09"
         style="fill:#ade2c0;fill-opacity:1;fill-rule:nonzero;stroke:none"
         id="path144" /><path
         d="m 2716.66,1682.24 v 0 0"
         style="fill:#849193;fill-opacity:1;fill-rule:nonzero;stroke:none"
         id="path146" /><path
         d="m 2554.72,1667.98 c -1.84,0 -3.66,0.1 -5.43,0.31 -47.96,5.65 -98.88,50.13 -98.88,50.13 1.59,11.19 1.36,33.92 0.51,57.27 8.13,1.8 15.91,2.34 22.3,2.34 9.5,0 15.94,-1.19 15.94,-1.19 0,0 47.83,21.2 88.92,21.2 11.48,0 22.44,-1.66 31.68,-5.89 25.17,-11.55 50.73,-10.92 70.52,-12.28 l -8.93,-43.75 c 0,0 -68.71,-68.14 -116.63,-68.14"
         style="fill:#ffffff;fill-opacity:1;fill-rule:nonzero;stroke:none"
         id="path148" /><path
         d="m 2848.36,698.84 -62.6,65 20.7,245.8 50.62,432.86 c 5.31,45.46 -17.86,89.39 -58.21,110.99 -58.05,31.08 -126.71,55.85 -126.71,55.85 l 17.05,23.19 c 10.21,11.67 18.62,22.73 23.55,32.02 v 0 c 2.7,5.1 5.1,10.59 7.3,16.39 v 0 l 274.6,-104.5 c 157.8,-168.59 278.1,-563.19 278.1,-563.19 -124.2,-205.91 -358.4,-293.199 -424.4,-314.41 v 0 m 93.2,236.422 c 0,-1.672 0.31,-2.582 1,-2.582 0.18,0 0.37,0.05 0.6,0.172 v 0 0 c -0.1,0 -0.14,0.027 -0.14,0.097 -0.06,3.5 111.83,93.091 111.83,93.091 v 0 0 c -19.09,64.5 -125.89,247.6 -125.89,247.6 l -10.3,-12.3 c 0,0 -4.03,-20.69 -9.2,-47.18 -0.64,-3.26 -1.29,-6.6 -1.95,-10 -8.78,-45.01 -19.6,-100.48 -19.95,-102.32 l -4.5,-27.9 v 0 c 0,0 1.44,0.07 3.92,0.07 12.49,0 51.38,-1.61 65.98,-20.97 3.46,-4.56 4.79,-12.19 4.79,-21.47 -0.01,-32.191 -16.18,-84.179 -16.19,-96.308"
         style="fill:#50c183;fill-opacity:1;fill-rule:nonzero;stroke:none"
         id="path150" /><path
         d="m 2716.66,1682.24 c 0.01,0.05 0.6,4.45 1.24,11.29 -0.64,-6.86 -1.23,-11.24 -1.24,-11.29"
         style="fill:#50c183;fill-opacity:1;fill-rule:nonzero;stroke:none"
         id="path152" /><path
         d="m 2689.21,1632.53 23.55,32.02 c -4.93,-9.29 -13.34,-20.35 -23.55,-32.02"
         style="fill:#86c7a0;fill-opacity:1;fill-rule:nonzero;stroke:none"
         id="path154" /><path
         d="m 2712.76,1664.55 5.7,35.59 c -0.18,-2.38 -0.37,-4.6 -0.56,-6.61 -0.64,-6.84 -1.23,-11.24 -1.24,-11.29 v 0 0 0 0 0 l 3.4,-1.3 c -2.2,-5.8 -4.6,-11.29 -7.3,-16.39"
         style="fill:#86c7a0;fill-opacity:1;fill-rule:nonzero;stroke:none"
         id="path156" /><path
         d="m 2279.96,873.352 c 0,0 -123.2,98.296 -174,98.296 -50.7,0 -41.7,16.301 0,81.392 41.7,65.21 86.75,284.58 86.75,284.58 l -13.81,183.64 c 39.12,-47.99 91.61,-205.23 115.82,-282.24 l -10.12,-24.86 -4.06,-10 -71.58,-176.02 34.4,-30.288 v 0 c 0,0 -2.88,14.808 -2.88,31.098 -0.01,15.24 2.51,31.78 12.28,38.69 12.48,8.77 39.79,10.45 58.86,10.45 11.8,0 20.44,-0.64 20.44,-0.64 v 0 0 l -34.32,151.89 c 6.45,-20.72 10.22,-33.59 10.22,-33.59 l 42.7,-142.71 -80.2,-97.688 9.5,-82"
         style="fill:#50c183;fill-opacity:1;fill-rule:nonzero;stroke:none"
         id="path158" /><path
         d="m 2297.74,1229.34 c -0.95,3.06 -1.96,6.3 -3.02,9.68 l 0.53,1.33 2.49,-11.01"
         style="fill:#c3c5c2;fill-opacity:1;fill-rule:nonzero;stroke:none"
         id="path160" /><path
         d="m 2441.93,1847.71 c 0,-0.01 0.22,-2.09 0.54,-5.79 0.98,-11.09 2.94,-36.46 2.94,-61.11 0.01,-16.41 -0.9,-32.58 -3.38,-43.6 -0.61,-2.69 1.09,-5.37 3.78,-5.97 2.7,-0.6 5.37,1.09 5.97,3.79 2.77,12.42 3.62,28.98 3.63,45.78 -0.01,33.55 -3.52,67.83 -3.53,67.92 -0.28,2.75 -2.74,4.74 -5.48,4.46 -2.75,-0.28 -4.75,-2.73 -4.47,-5.48"
         style="fill:#17282f;fill-opacity:1;fill-rule:nonzero;stroke:none"
         id="path162" /><path
         d="m 2684.19,1746.49 v 0.84 c -0.01,5.66 0.39,39.37 8.42,71.39 0.67,2.68 -0.96,5.4 -3.64,6.07 -2.68,0.67 -5.4,-0.96 -6.07,-3.64 -8.36,-33.49 -8.7,-67.71 -8.71,-73.82 v -0.96 c 0.04,-2.76 2.3,-4.97 5.06,-4.94 2.76,0.04 4.97,2.3 4.94,5.06"
         style="fill:#17282f;fill-opacity:1;fill-rule:nonzero;stroke:none"
         id="path164" /><path
         d="m 2695.89,2177.82 c 0.01,-0.01 0.64,-0.81 1.82,-2.37 4.14,-5.48 14.59,-19.96 23.93,-37.62 9.36,-17.64 17.47,-38.55 17.42,-56.21 0,-1.04 -0.03,-2.06 -0.09,-3.08 -2.05,-38.1 -5.01,-82.57 -5.02,-127.24 0,-7.05 0.08,-14.11 0.24,-21.16 l 0.01,-0.98 c 0.04,-11.63 -4.83,-27.49 -13.08,-44.45 -12.34,-25.47 -32.08,-53.57 -52.54,-75.96 -10.23,-11.2 -20.65,-20.97 -30.33,-28.3 -9.66,-7.33 -18.65,-12.14 -25.48,-13.62 -17.27,-3.84 -33.4,-6.46 -48.05,-6.45 -21.5,0.05 -39.47,5.4 -54.76,20.62 -27,26.98 -54.41,65.05 -90.22,114.01 -11.46,15.6 -18.48,38.46 -22.41,61.75 -3.96,23.29 -4.93,46.98 -4.92,64.38 0,8.12 0.21,14.87 0.41,19.58 0.21,4.71 0.42,7.32 0.42,7.33 0.21,2.75 -1.85,5.15 -4.6,5.37 -2.75,0.21 -5.16,-1.84 -5.37,-4.6 -0.01,-0.1 -0.86,-11.1 -0.86,-27.68 0,-17.77 0.97,-41.94 5.06,-66.05 4.12,-24.12 11.25,-48.22 24.2,-65.99 35.81,-48.91 63.32,-87.25 91.22,-115.17 17.33,-17.4 38.72,-23.61 61.83,-23.55 15.83,0 32.61,2.78 50.22,6.69 12.2,2.78 25.68,11.63 39.8,23.97 21.1,18.55 43.24,45.2 60.29,72.31 16.99,27.18 29.06,54.49 29.17,75.81 l -0.01,1.22 c -0.16,6.95 -0.24,13.94 -0.24,20.92 0,44.24 2.95,88.52 5.01,126.7 0.06,1.2 0.1,2.41 0.1,3.62 -0.08,23.52 -11.56,48.78 -22.79,68.53 -11.26,19.71 -22.45,33.76 -22.55,33.89 -1.72,2.16 -4.87,2.52 -7.03,0.8 -2.16,-1.72 -2.52,-4.86 -0.8,-7.02"
         style="fill:#17282f;fill-opacity:1;fill-rule:nonzero;stroke:none"
         id="path166" /><path
         d="m 2582.82,2008.37 c -2.51,-14.2 -3.78,-28.63 -3.78,-43.05 -0.01,-2.2 0.02,-4.41 0.08,-6.61 v 0 c 0.42,-13.96 2.28,-30.03 13.37,-41.48 2.95,-2.99 6.12,-5.36 8.41,-7.65 2.33,-2.32 3.54,-4.23 3.8,-6.24 v -0.01 l 0.06,-0.82 c 0,-1.59 -0.64,-3.37 -1.98,-5.21 -1.32,-1.83 -3.29,-3.6 -5.38,-4.93 h 0.01 c -4.78,-3.14 -11.42,-5.33 -17.38,-10.41 -2.08,-1.81 -2.3,-4.97 -0.49,-7.05 1.81,-2.08 4.97,-2.31 7.05,-0.49 3.89,3.47 9.98,5.64 16.2,9.53 h 0.01 c 2.97,1.92 5.83,4.39 8.07,7.46 2.23,3.06 3.88,6.83 3.89,11.1 l -0.15,2.16 0.01,-0.01 c -0.72,5.27 -3.73,9.1 -6.68,12.02 -2.98,2.94 -6.13,5.3 -8.32,7.55 -8.01,8.02 -10.2,21.42 -10.5,34.75 v 0 c -0.06,2.11 -0.09,4.23 -0.09,6.34 0,13.83 1.22,27.68 3.64,41.3 0.48,2.72 -1.33,5.32 -4.05,5.8 -2.72,0.48 -5.32,-1.33 -5.8,-4.05"
         style="fill:#17282f;fill-opacity:1;fill-rule:nonzero;stroke:none"
         id="path168" /><path
         d="m 2508.88,1871.75 c 0.09,-0.51 1.6,-9.96 9.44,-20.48 7.81,-10.53 22.19,-21.88 46.64,-25.65 2.73,-0.42 5.29,1.44 5.71,4.17 0.43,2.73 -1.44,5.29 -4.17,5.71 -22.08,3.49 -33.66,13.12 -40.17,21.75 -3.24,4.33 -5.15,8.46 -6.25,11.45 -0.54,1.49 -0.89,2.71 -1.08,3.51 l -0.2,0.89 -0.04,0.18 -0.06,-0.01 0.06,0.01 v 0 l -0.06,-0.01 0.06,0.01 c -0.42,2.73 -2.98,4.6 -5.71,4.18 -2.73,-0.43 -4.59,-2.98 -4.17,-5.71"
         style="fill:#17282f;fill-opacity:1;fill-rule:nonzero;stroke:none"
         id="path170" /><path
         d="m 2518.66,1981.04 c 0,-10.03 -4.33,-18.15 -9.68,-18.15 -5.35,0 -9.68,8.12 -9.68,18.15 0,10.03 4.33,18.16 9.68,18.16 5.35,0 9.68,-8.13 9.68,-18.16"
         style="fill:#17282f;fill-opacity:1;fill-rule:nonzero;stroke:none"
         id="path172" /><path
         d="m 2657.44,1976.68 c 0,-10.03 -4.33,-18.16 -9.68,-18.16 -5.35,0 -9.68,8.13 -9.68,18.16 0,10.03 4.33,18.15 9.68,18.15 5.35,0 9.68,-8.12 9.68,-18.15"
         style="fill:#17282f;fill-opacity:1;fill-rule:nonzero;stroke:none"
         id="path174" /><path
         d="m 2636.52,2013.56 -1.73,1.73 1.71,-1.75 0.02,0.02 -1.73,1.73 1.71,-1.75 c 0.17,0.18 4.48,4.34 11.03,8.25 6.55,3.95 15.2,7.48 23.93,7.44 5.06,-0.01 10.22,-1.07 15.74,-3.98 5.51,-2.92 11.46,-7.8 17.59,-15.87 3.34,-4.4 9.61,-5.26 14.01,-1.92 4.4,3.34 5.26,9.61 1.92,14.01 -7.54,9.96 -15.71,16.98 -24.16,21.45 -8.44,4.49 -17.1,6.32 -25.1,6.31 -14.4,-0.04 -26.48,-5.57 -35.02,-10.78 -8.55,-5.25 -13.69,-10.38 -14.07,-10.75 -3.9,-3.9 -3.9,-10.23 0,-14.14 3.91,-3.91 10.24,-3.91 14.15,0"
         style="fill:#17282f;fill-opacity:1;fill-rule:nonzero;stroke:none"
         id="path176" /><path
         d="m 2541.45,2026.42 c -0.48,0.53 -4.32,4.76 -11.39,9.04 -7.05,4.27 -17.51,8.58 -30.65,8.58 -13.14,0.03 -28.58,-4.41 -44.98,-16.12 -4.5,-3.21 -5.55,-9.45 -2.35,-13.95 3.2,-4.5 9.44,-5.55 13.94,-2.35 13.69,9.69 24.67,12.39 33.39,12.42 8.71,-0.01 15.54,-2.83 20.32,-5.7 2.37,-1.43 4.19,-2.86 5.35,-3.88 l 1.25,-1.16 0.23,-0.23 0.02,-0.02 4.37,4.01 -4.43,-3.95 0.06,-0.06 4.37,4.01 -4.43,-3.95 c 3.68,-4.12 10,-4.48 14.12,-0.81 4.12,3.68 4.48,10 0.81,14.12"
         style="fill:#17282f;fill-opacity:1;fill-rule:nonzero;stroke:none"
         id="path178" /><path
         d="m 2450.41,1805.93 c 0,0 27.64,-76.18 89.37,-97.79 61.73,-21.6 143.69,90.53 143.69,90.53 l -4.29,14.59 c 0,0 -53.7,-69.79 -113.45,-57.88 -59.74,11.89 -118.82,92.84 -118.82,92.84 l 3.5,-42.29"
         style="fill:#17282f;fill-opacity:1;fill-rule:nonzero;stroke:none"
         id="path180" /><path
         d="m 2393.37,1947.56 -0.27,-0.08 c -1.42,-0.48 -8.48,-2.59 -16.17,-2.57 -4.86,-0.01 -9.88,0.83 -13.99,3.06 -4.1,2.27 -7.52,5.73 -9.76,12.17 -3.55,10.38 -9.94,26.26 -15.44,43.62 -5.52,17.33 -10.07,36.13 -10.05,51.56 -0.01,6.37 0.76,12.13 2.41,16.96 1.65,4.84 4.1,8.73 7.62,11.75 4.55,3.86 8.3,5.07 11.72,5.09 3.95,0.01 8.02,-1.8 12.07,-5.06 6.06,-4.86 11.56,-12.77 15.34,-19.43 1.9,-3.32 3.4,-6.33 4.41,-8.49 0.5,-1.08 0.89,-1.95 1.14,-2.54 l 0.37,-0.86 c 1.03,-2.56 3.95,-3.8 6.51,-2.77 2.56,1.04 3.79,3.95 2.76,6.51 -0.09,0.19 -4.16,10.31 -11.24,20.7 -3.55,5.2 -7.86,10.49 -13.01,14.66 -5.13,4.14 -11.3,7.27 -18.35,7.28 -6.07,0.02 -12.37,-2.44 -18.23,-7.5 -5.06,-4.33 -8.49,-9.93 -10.58,-16.13 -2.11,-6.2 -2.94,-13.02 -2.94,-20.17 0.02,-17.31 4.88,-36.77 10.51,-54.58 5.64,-17.77 12.14,-33.91 15.52,-43.83 2.88,-8.6 8.31,-14.45 14.47,-17.73 6.15,-3.31 12.8,-4.26 18.74,-4.27 10.76,0.02 19.46,3.13 19.77,3.22 2.6,0.92 3.96,3.78 3.05,6.38 -0.92,2.61 -3.78,3.97 -6.38,3.05"
         style="fill:#17282f;fill-opacity:1;fill-rule:nonzero;stroke:none"
         id="path182" /><path
         d="m 2738.14,1922.31 c 0.23,-0.04 4.12,-0.82 9.78,-0.82 5.89,0.01 13.74,0.82 21.36,4.49 7.61,3.63 14.88,10.47 18.56,21.41 3.38,9.91 9.87,26.06 15.51,43.83 5.63,17.81 10.5,37.27 10.52,54.59 0,7.15 -0.84,13.96 -2.94,20.17 -2.1,6.19 -5.53,11.8 -10.58,16.12 -5.86,5.06 -12.16,7.52 -18.23,7.5 -7.05,-0.01 -13.23,-3.14 -18.36,-7.28 -7.71,-6.26 -13.58,-15.01 -17.74,-22.25 -4.13,-7.23 -6.45,-12.96 -6.5,-13.1 -1.04,-2.56 0.2,-5.48 2.76,-6.51 2.56,-1.04 5.47,0.2 6.51,2.76 l 0.15,0.37 c 0.83,1.97 5.03,11.49 11.3,20.19 3.12,4.35 6.77,8.47 10.56,11.35 3.82,2.9 7.61,4.48 11.32,4.47 3.42,-0.02 7.17,-1.23 11.72,-5.09 3.51,-3.02 5.97,-6.91 7.62,-11.75 1.64,-4.83 2.41,-10.59 2.41,-16.95 0.02,-15.44 -4.54,-34.23 -10.05,-51.57 -5.51,-17.36 -11.9,-33.25 -15.45,-43.62 -2.92,-8.43 -7.83,-12.86 -13.45,-15.64 -5.62,-2.74 -12.06,-3.5 -17,-3.49 -2.37,0 -4.38,0.16 -5.77,0.33 l -1.58,0.22 -0.39,0.06 -0.07,0.02 c -2.71,0.54 -5.34,-1.21 -5.89,-3.92 -0.54,-2.71 1.21,-5.34 3.92,-5.89"
         style="fill:#17282f;fill-opacity:1;fill-rule:nonzero;stroke:none"
         id="path184" /><path
         d="m 2387.4,1981.04 c 10.2,0.46 26.93,10.4 32.3,19.08 5.36,8.68 7.64,18.88 9.38,28.93 3.33,19.26 5.05,38.79 5.11,58.33 0.03,7.64 -0.17,15.43 2.06,22.73 2.32,7.61 7.14,14.19 12.3,20.23 12.84,15.05 28.31,27.77 40.51,43.34 12.21,15.57 21.19,35.27 17.88,54.78 0,0 83.45,-76.28 203.74,-52.69 64.76,12.7 126.91,69.53 119.35,140.96 -2.69,25.42 -21.38,43.69 -45.63,49.73 -32.02,7.96 -60.78,-9.1 -89.78,-20.05 -52.87,-19.93 -104.61,14.3 -158.03,20.05 -45.69,4.91 -101.76,-0.75 -125.55,-46.18 0,0 -82.06,-9.63 -118.01,-77.04 -35.95,-67.39 32.38,-160.7 32.38,-160.7 0,0 27.5,33.29 62.84,-34.11 l -0.85,-67.39"
         style="fill:#17282f;fill-opacity:1;fill-rule:nonzero;stroke:none"
         id="path186" /><path
         d="m 2704.97,2198.17 c 0,0 -21.22,-110.59 34.15,-164.14 0,0 12.12,33.25 24.41,41.36 0,0 30.82,58.42 -9.7,122.78 -40.52,64.35 -48.86,0 -48.86,0"
         style="fill:#17282f;fill-opacity:1;fill-rule:nonzero;stroke:none"
         id="path188" /><path
         d="m 2378.08,2147.58 c -0.11,0 -0.23,0 -0.34,0.01 -2.76,0.19 -4.84,2.57 -4.65,5.33 2.23,32.45 19.86,62.52 44.56,84.54 24.73,22.01 56.68,36.16 88.43,36.19 3.03,0 6.06,-0.13 9.08,-0.4 54.45,-4.88 106.85,-23.09 158.63,-23.09 0.09,0 0.19,0 0.28,0 22.44,0.01 44.74,3.35 67.27,12.52 28.1,11.43 52.63,34.12 60.24,62.63 0.6,2.23 2.62,3.7 4.83,3.7 0.42,0 0.86,-0.05 1.3,-0.17 2.66,-0.72 4.24,-3.46 3.53,-6.13 -8.79,-32.44 -35.79,-56.9 -66.13,-69.29 -23.88,-9.73 -47.58,-13.26 -71,-13.26 -0.01,0 -0.03,0 -0.04,0 -54.17,0.07 -106.89,18.52 -159.79,23.13 -2.72,0.24 -5.45,0.36 -8.2,0.36 -0.03,0 -0.06,0 -0.09,0 -28.69,0 -58.6,-13.07 -81.69,-33.66 -23.14,-20.6 -39.28,-48.57 -41.23,-77.75 -0.18,-2.64 -2.38,-4.66 -4.99,-4.66"
         style="fill:#405158;fill-opacity:1;fill-rule:nonzero;stroke:none"
         id="path190" /><path
         d="m 2330.34,2164.61 c -0.04,0 -0.08,0 -0.12,0 -2.76,0.07 -4.95,2.35 -4.89,5.12 1.28,52.95 35.93,103.15 85.01,123.1 0.62,0.25 1.25,0.37 1.88,0.37 1.97,0 3.84,-1.18 4.63,-3.12 1.04,-2.56 -0.19,-5.48 -2.75,-6.51 -45.2,-18.24 -77.72,-65.35 -78.77,-114.07 -0.06,-2.73 -2.29,-4.89 -4.99,-4.89"
         style="fill:#405158;fill-opacity:1;fill-rule:nonzero;stroke:none"
         id="path192" /><path
         d="m 2425.48,1743.07 c 0.29,-0.25 51.18,-56.53 121.64,-83.22 1.02,-0.38 2.11,-0.43 3.16,-0.12 0.2,0.06 23.47,6.81 52.75,21.71 29.26,14.91 64.6,37.93 88.76,70.99 1.63,2.23 1.14,5.36 -1.09,6.99 -2.23,1.62 -5.36,1.14 -6.98,-1.09 -22.67,-31.1 -56.77,-53.51 -85.23,-67.98 -14.23,-7.24 -27.03,-12.52 -36.24,-15.97 -4.61,-1.72 -8.33,-2.99 -10.87,-3.83 -1.28,-0.42 -2.26,-0.73 -2.92,-0.93 l -0.96,-0.29 1.39,-4.8 1.77,4.68 c -33.81,12.76 -63.36,32.95 -84.38,49.94 -10.51,8.5 -18.89,16.19 -24.63,21.75 -2.87,2.77 -5.08,5.01 -6.56,6.55 l -1.67,1.76 -0.54,0.58 c -1.85,2.05 -5.01,2.2 -7.06,0.34 -2.04,-1.85 -2.2,-5.01 -0.34,-7.06"
         style="fill:#17282f;fill-opacity:1;fill-rule:nonzero;stroke:none"
         id="path194" /><path
         d="m 2570.61,1981.04 h -5 c -0.01,-21.12 -8.55,-40.2 -22.39,-54.04 -13.85,-13.85 -32.93,-22.39 -54.05,-22.39 -21.12,0 -40.2,8.54 -54.05,22.39 -13.84,13.84 -22.38,32.92 -22.38,54.04 0,21.12 8.54,40.2 22.38,54.05 13.85,13.84 32.93,22.38 54.05,22.38 21.12,0 40.2,-8.54 54.05,-22.38 13.84,-13.85 22.38,-32.93 22.39,-54.05 h 5 5 c -0.01,47.74 -38.71,86.43 -86.44,86.43 -47.74,0 -86.43,-38.69 -86.43,-86.43 0,-47.73 38.69,-86.43 86.43,-86.43 47.74,0 86.43,38.7 86.44,86.43 h -5"
         style="fill:#17282f;fill-opacity:1;fill-rule:nonzero;stroke:none"
         id="path196" /><path
         d="m 2752.53,1981.04 h -5 c 0,-21.12 -8.55,-40.2 -22.38,-54.04 -13.85,-13.85 -32.93,-22.39 -54.05,-22.39 -21.12,0 -40.2,8.54 -54.04,22.39 -13.84,13.84 -22.39,32.92 -22.39,54.04 0,21.12 8.55,40.2 22.38,54.05 13.85,13.84 32.93,22.38 54.05,22.38 21.13,0 40.2,-8.54 54.05,-22.38 13.83,-13.85 22.38,-32.93 22.38,-54.05 h 5 5 c 0,47.74 -38.69,86.43 -86.43,86.43 -47.74,0 -86.43,-38.69 -86.43,-86.43 0,-47.73 38.69,-86.43 86.43,-86.43 47.74,0 86.43,38.7 86.43,86.43 h -5"
         style="fill:#17282f;fill-opacity:1;fill-rule:nonzero;stroke:none"
         id="path198" /><path
         d="m 2445.91,1781.7 c -0.35,-0.07 -7,-1.44 -15.61,-6.2 -8.58,-4.74 -19.16,-12.95 -26.91,-26.6 -3.82,-6.8 -5.89,-15.78 -7.22,-25.9 -1.3,-10.1 -1.75,-21.29 -1.75,-32.11 0,-26.13 2.62,-50.14 2.63,-50.24 0.13,-1.15 0.63,-2.2 1.46,-3.02 0.21,-0.14 74.5,-73.9 139.07,-105.63 1.41,-0.69 3.06,-0.68 4.46,0.03 1.4,0.71 2.38,2.04 2.66,3.59 l 14.82,83.36 23.13,-83.82 c 0.43,-1.56 1.61,-2.83 3.14,-3.38 1.53,-0.54 3.25,-0.31 4.57,0.63 0.09,0.07 24.74,17.49 52.88,42.36 28.14,24.93 59.79,57.03 74.05,87.66 l 0.42,1.46 c 0.01,0.11 3.98,30.58 3.98,57.95 -0.04,13.76 -0.87,26.54 -4.28,35.37 -4.48,11.46 -12.08,17.91 -18.87,21.11 -6.8,3.23 -12.7,3.48 -14.65,3.49 l -0.68,-0.01 c -2.76,-0.14 -4.88,-2.49 -4.74,-5.25 0.15,-2.76 2.5,-4.88 5.25,-4.74 l -0.03,0.68 0.02,-0.68 h 0.01 l -0.03,0.68 0.02,-0.68 h 0.18 c 0.99,0.01 5.47,-0.17 10.34,-2.52 4.88,-2.37 10.24,-6.64 13.87,-15.75 2.5,-6.14 3.64,-18.53 3.59,-31.7 0,-13.22 -0.97,-27.43 -1.95,-38.3 -0.48,-5.44 -0.97,-10.04 -1.34,-13.28 -0.36,-3.24 -0.6,-5.08 -0.6,-5.09 l 4.96,-0.64 -4.54,2.1 c -12.91,-28.03 -43.9,-59.94 -71.61,-84.37 -13.85,-12.24 -26.88,-22.68 -36.44,-30.05 -4.77,-3.69 -8.68,-6.6 -11.39,-8.6 -2.71,-1.99 -4.19,-3.03 -4.2,-3.04 l 2.89,-4.08 4.82,1.33 -29,105.11 c -0.62,2.25 -2.72,3.77 -5.06,3.66 -2.33,-0.11 -4.28,-1.81 -4.68,-4.12 l -18.7,-105.1 4.93,-0.88 2.2,4.49 c -31.01,15.18 -65.28,41.17 -91.62,63.33 -13.18,11.08 -24.41,21.21 -32.32,28.55 -3.96,3.67 -7.09,6.65 -9.23,8.71 -2.14,2.05 -3.27,3.17 -3.27,3.17 l -3.52,-3.55 4.97,0.54 c 0,0 -0.15,1.44 -0.4,4.05 -0.72,7.84 -2.17,26 -2.17,45.11 0,10.54 0.44,21.38 1.67,30.83 1.19,9.45 3.28,17.55 5.99,22.24 6.66,11.72 15.67,18.69 23.07,22.79 3.69,2.05 6.96,3.36 9.27,4.14 1.16,0.39 2.07,0.66 2.67,0.81 l 0.66,0.17 0.15,0.03 c 2.7,0.55 4.45,3.19 3.91,5.89 -0.55,2.71 -3.19,4.46 -5.9,3.91"
         style="fill:#17282f;fill-opacity:1;fill-rule:nonzero;stroke:none"
         id="path200" /><path
         d="m 2335.28,1074.65 c -0.01,0.06 -7.28,48.84 -19.41,107.64 -12.16,58.85 -29.03,127.51 -48.8,168.18 -1.2,2.48 -4.2,3.51 -6.68,2.3 -2.48,-1.21 -3.51,-4.2 -2.31,-6.68 18.95,-38.84 35.96,-107.36 48,-165.82 6.03,-29.25 10.86,-56.04 14.18,-75.51 1.66,-9.73 2.94,-17.64 3.81,-23.1 0.87,-5.47 1.32,-8.48 1.32,-8.48 0.4,-2.74 2.95,-4.62 5.68,-4.21 2.73,0.4 4.62,2.95 4.21,5.68"
         style="fill:#17282f;fill-opacity:1;fill-rule:nonzero;stroke:none"
         id="path202" /><path
         d="m 2174.83,1518.35 c 0,-0.01 2.26,-3.16 6.05,-8.73 11.36,-16.68 36.34,-54.78 53.7,-91.24 1.19,-2.49 4.17,-3.55 6.66,-2.36 2.5,1.19 3.55,4.17 2.37,6.66 -23.71,49.75 -60.56,101.35 -60.64,101.48 -1.61,2.25 -4.73,2.77 -6.98,1.17 -2.24,-1.61 -2.77,-4.73 -1.16,-6.98"
         style="fill:#17282f;fill-opacity:1;fill-rule:nonzero;stroke:none"
         id="path204" /><path
         d="m 2948,1374.5 c 10.18,38.67 21.05,72.57 31.65,94.2 1.21,2.48 0.19,5.47 -2.29,6.69 -2.48,1.21 -5.48,0.18 -6.69,-2.3 -11.16,-22.82 -22.05,-57.04 -32.34,-96.04 -0.7,-2.67 0.89,-5.4 3.56,-6.11 2.67,-0.7 5.41,0.89 6.11,3.56"
         style="fill:#17282f;fill-opacity:1;fill-rule:nonzero;stroke:none"
         id="path206" /><path
         d="m 2887.99,1073.14 c 0,0.02 1.31,8.32 3.66,22.55 7.06,42.68 23.54,138.42 42.23,220.81 0.61,2.69 -1.08,5.37 -3.77,5.98 -2.69,0.61 -5.37,-1.08 -5.98,-3.77 -25.02,-110.34 -46.01,-243.97 -46.02,-244.02 -0.43,-2.73 1.43,-5.29 4.16,-5.72 2.73,-0.43 5.29,1.44 5.72,4.17"
         style="fill:#17282f;fill-opacity:1;fill-rule:nonzero;stroke:none"
         id="path208" /><path
         d="m 2922.63,1258.39 c 19.3,25.78 47.39,44.98 78.4,53.61 2.66,0.74 4.22,3.49 3.48,6.15 -0.75,2.66 -3.5,4.22 -6.16,3.48 -33.19,-9.25 -63.05,-29.67 -83.73,-57.25 -1.65,-2.21 -1.2,-5.34 1.01,-7 2.21,-1.65 5.34,-1.2 7,1.01"
         style="fill:#17282f;fill-opacity:1;fill-rule:nonzero;stroke:none"
         id="path210" /><path
         d="m 2714.84,1677.61 c 0.03,-0.01 168.98,-67.5 278.21,-105.89 l 1.66,4.71 -3.43,-3.64 0.32,-0.31 c 7.32,-7.14 137.2,-138.03 276.37,-560.81 l 4.75,1.56 -4.3,2.55 c 0,0 -0.48,-0.8 -1.48,-2.41 -15.07,-24.198 -145.2,-222.222 -378.15,-288.151 -2.65,-0.758 -4.2,-3.52 -3.44,-6.18 0.75,-2.648 3.51,-4.199 6.17,-3.437 252.92,71.847 385.16,294.658 385.49,295.068 0.74,1.25 0.91,2.75 0.46,4.12 -144.05,437.62 -278.6,564.59 -279.34,565.28 l -1.76,1.08 c -54.43,19.13 -123.91,45.57 -179.76,67.23 -27.92,10.83 -52.44,20.46 -69.98,27.38 -17.54,6.92 -28.06,11.12 -28.08,11.14 -2.57,1.02 -5.48,-0.23 -6.5,-2.79 -1.03,-2.57 0.22,-5.48 2.79,-6.5"
         style="fill:#17282f;fill-opacity:1;fill-rule:nonzero;stroke:none"
         id="path212" /><path
         d="m 2936.91,921.07 121.13,101.14 -3.2,3.84 3.02,-3.98 0.33,0.24 c 3.64,2.72 36.95,25.86 77.93,25.78 14.97,-0.01 30.96,-3.01 47.21,-11.13 2.47,-1.23 5.47,-0.23 6.71,2.24 1.23,2.47 0.23,5.47 -2.24,6.7 -17.72,8.87 -35.37,12.19 -51.68,12.19 -47.7,-0.1 -83.88,-27.81 -84.31,-28.06 l -0.18,-0.14 -121.13,-101.14 c -2.12,-1.77 -2.41,-4.93 -0.64,-7.051 1.77,-2.121 4.93,-2.398 7.05,-0.629"
         style="fill:#17282f;fill-opacity:1;fill-rule:nonzero;stroke:none"
         id="path214" /><path
         d="m 2924.87,1270.8 c 0,-0.01 1.54,-2.27 4.32,-6.48 9.71,-14.73 34.41,-53.03 59.44,-98.47 25.03,-45.42 50.37,-98.09 61.36,-141.04 0.69,-2.68 3.41,-4.29 6.09,-3.6 2.67,0.68 4.28,3.41 3.6,6.08 -13.07,50.88 -44.68,112.91 -73.03,162.51 -28.35,49.57 -53.46,86.55 -53.51,86.62 -1.55,2.28 -4.66,2.88 -6.94,1.33 -2.29,-1.55 -2.88,-4.66 -1.33,-6.95"
         style="fill:#17282f;fill-opacity:1;fill-rule:nonzero;stroke:none"
         id="path216" /><path
         d="m 2247.89,995.871 -35.44,33.799 c -0.73,0.69 -1.61,1.13 -2.59,1.31 -0.24,0.04 -5.76,0.99 -15.13,0.99 -20.33,0 -58.94,-4.49 -100.73,-32.521 -2.29,-1.539 -2.9,-4.64 -1.36,-6.937 1.53,-2.293 4.64,-2.903 6.93,-1.364 39.8,26.682 76.26,30.812 95.16,30.822 4.35,0 7.76,-0.22 10.05,-0.44 1.15,-0.11 2.02,-0.21 2.58,-0.29 l 0.62,-0.09 0.15,-0.02 0.87,4.92 -3.45,-3.62 35.44,-33.801 c 2,-1.899 5.17,-1.828 7.07,0.172 1.91,2 1.83,5.168 -0.17,7.07"
         style="fill:#17282f;fill-opacity:1;fill-rule:nonzero;stroke:none"
         id="path218" /><path
         d="m 2213.78,1024.59 c 0.01,0.03 2.73,8.99 7.53,23.67 14.35,44.02 47.32,139.35 79.47,194.57 1.39,2.39 0.58,5.45 -1.81,6.84 -2.39,1.39 -5.45,0.58 -6.84,-1.81 -22.01,-37.88 -43.89,-92.83 -60.39,-138.46 -16.48,-45.62 -27.51,-81.84 -27.53,-81.89 -0.8,-2.64 0.69,-5.44 3.33,-6.24 2.64,-0.81 5.43,0.68 6.24,3.32"
         style="fill:#17282f;fill-opacity:1;fill-rule:nonzero;stroke:none"
         id="path220" /><path
         d="m 2397.66,1669.21 c -0.03,-0.01 -60.82,-22.82 -124.64,-48.97 -31.92,-13.08 -64.59,-26.99 -90.85,-39.34 -13.14,-6.17 -24.68,-11.95 -33.78,-17.09 -9.13,-5.19 -15.7,-9.47 -19.57,-13.7 -2.41,-2.79 -4.05,-6.52 -6.17,-11.98 -7.63,-20.2 -18.11,-63.01 -29.82,-117.33 -17.53,-81.4 -37.61,-188.17 -53.52,-279.77 -7.96,-45.8 -14.88,-87.8 -19.91,-120.94 -5.04,-33.199 -8.19,-57.32 -8.64,-68.121 l -0.02,-1.09 c 0.03,-8.09 3.45,-16.391 9.03,-25.149 9.82,-15.3 26.68,-32.281 47.81,-50.16 63.35,-53.531 165.24,-114.66 226.54,-147.07 2.44,-1.289 5.47,-0.359 6.76,2.078 1.29,2.442 0.35,5.473 -2.09,6.762 -46.29,24.461 -116.37,65.738 -174.66,107.328 -29.14,20.781 -55.35,41.672 -74.07,60.402 -9.36,9.36 -16.84,18.192 -21.86,26.051 -5.06,7.848 -7.5,14.699 -7.46,19.758 l 0.01,0.68 c 0.55,13.91 6.65,56.951 15.84,113.261 13.78,84.59 34.53,199.87 54.05,296.42 9.76,48.27 19.22,91.87 27.33,124.56 4.05,16.34 7.77,29.96 10.99,40 1.61,5.01 3.1,9.13 4.4,12.19 1.27,3.03 2.51,5.07 2.9,5.44 2.09,2.41 8.33,6.8 17.05,11.68 30.71,17.34 92.89,43.65 147.12,65.46 27.13,10.92 52.33,20.74 70.73,27.83 18.41,7.09 29.98,11.44 30.01,11.45 2.59,0.97 3.9,3.85 2.93,6.43 -0.97,2.59 -3.86,3.9 -6.44,2.93"
         style="fill:#17282f;fill-opacity:1;fill-rule:nonzero;stroke:none"
         id="path222" /><path
         d="m 3279.34,1746.43 h -276.96 c -32.7,0 -59.21,26.51 -59.21,59.21 v 162.47 c 0,32.71 26.51,59.22 59.21,59.22 h 276.96 c 32.7,0 59.21,-26.51 59.21,-59.22 v -162.47 c 0,-32.7 -26.51,-59.21 -59.21,-59.21"
         style="fill:#ffffff;fill-opacity:1;fill-rule:nonzero;stroke:none"
         id="path224" /><path
         d="m 3279.34,1746.43 v 5 h -276.96 c -14.98,0 -28.51,6.06 -38.33,15.88 -9.82,9.82 -15.88,23.34 -15.88,38.33 v 162.47 c 0,14.99 6.06,28.51 15.88,38.34 9.82,9.82 23.35,15.87 38.33,15.88 h 276.96 c 14.98,-0.01 28.51,-6.06 38.33,-15.88 9.82,-9.83 15.87,-23.35 15.88,-38.34 v -162.47 c -0.01,-14.99 -6.06,-28.51 -15.88,-38.33 -9.82,-9.82 -23.34,-15.88 -38.33,-15.88 v -5 -5 c 35.46,0 64.2,28.74 64.21,64.21 v 162.47 c -0.01,35.47 -28.74,64.21 -64.21,64.22 h -276.96 c -35.46,-0.01 -64.21,-28.75 -64.21,-64.22 v -162.47 c 0,-35.47 28.75,-64.2 64.21,-64.21 h 276.96 v 5"
         style="fill:#17282f;fill-opacity:1;fill-rule:nonzero;stroke:none"
         id="path226" /><path
         d="m 3068.07,1947.08 -76.02,-47.73 c -1.33,-0.84 -2.2,-2.26 -2.32,-3.82 -0.13,-1.57 0.49,-3.11 1.66,-4.16 l 70.55,-62.57 c 2.06,-1.84 5.22,-1.65 7.06,0.42 1.83,2.06 1.64,5.22 -0.43,7.06 l -65.55,58.15 70.37,44.18 c 2.34,1.47 3.05,4.56 1.58,6.9 -1.47,2.34 -4.56,3.04 -6.9,1.57"
         style="fill:#17282f;fill-opacity:1;fill-rule:nonzero;stroke:none"
         id="path228" /><path
         d="m 3212.52,1824.19 68.32,58.22 c 1.2,1.02 1.85,2.55 1.75,4.12 -0.1,1.57 -0.94,3.01 -2.25,3.87 l -78.87,51.71 c -2.31,1.51 -5.41,0.87 -6.92,-1.44 -1.51,-2.31 -0.87,-5.41 1.44,-6.93 l 73.29,-48.05 -63.24,-53.89 c -2.11,-1.79 -2.36,-4.95 -0.57,-7.05 1.79,-2.1 4.95,-2.35 7.05,-0.56"
         style="fill:#17282f;fill-opacity:1;fill-rule:nonzero;stroke:none"
         id="path230" /><path
         d="m 3112.46,1790.65 56.12,175.98 c 0.84,2.63 -0.61,5.45 -3.24,6.28 -2.63,0.84 -5.44,-0.61 -6.28,-3.24 l -56.13,-175.99 c -0.84,-2.63 0.62,-5.44 3.25,-6.28 2.63,-0.84 5.44,0.61 6.28,3.25"
         style="fill:#17282f;fill-opacity:1;fill-rule:nonzero;stroke:none"
         id="path232" /><path
         d="m 2581.17,1492.2 c 0,-8.82 -7.16,-15.98 -15.98,-15.98 -8.83,0 -15.99,7.16 -15.99,15.98 0,8.83 7.16,15.99 15.99,15.99 8.82,0 15.98,-7.16 15.98,-15.99"
         style="fill:#17282f;fill-opacity:1;fill-rule:nonzero;stroke:none"
         id="path234" /><path
         d="m 2862.41,638.07 h -553.14 c -7.16,0 -12.97,5.801 -12.97,12.969 0,7.16 5.81,12.973 12.97,12.973 h 553.14 c 7.17,0 12.97,-5.813 12.97,-12.973 0,-7.168 -5.8,-12.969 -12.97,-12.969"
         style="fill:#17282f;fill-opacity:1;fill-rule:nonzero;stroke:none"
         id="path236" /><path
         d="m 2881.78,681.059 74.12,348.101 c 4.91,23.04 -12.67,44.75 -36.23,44.75 h -646.28 c -23.33,0 -40.86,-21.32 -36.34,-44.22 l 66.46,-336.51 c 3.37,-17.039 18.12,-29.45 35.5,-29.852 l 505.69,-11.59 c 17.79,-0.41 33.37,11.91 37.08,29.321"
         style="fill:#ffffff;fill-opacity:1;fill-rule:nonzero;stroke:none"
         id="path238" /><path
         d="m 2881.78,681.059 4.89,-1.039 74.12,348.1 c 0.63,2.96 0.94,5.92 0.94,8.83 0,22.65 -18.36,41.94 -42.06,41.96 h -646.28 c -23.66,-0.02 -42.05,-19.28 -42.05,-41.96 0,-2.71 0.26,-5.46 0.81,-8.22 l 66.45,-336.519 c 3.83,-19.34 20.57,-33.43 40.29,-33.883 l 505.69,-11.578 0.98,-0.02 c 19.79,0.008 36.96,13.848 41.11,33.29 l -4.89,1.039 -4.89,1.043 c -3.16,-14.813 -16.26,-25.372 -31.33,-25.372 l -0.75,0.008 -505.69,11.59 c -15.03,0.34 -27.79,11.082 -30.71,25.82 l -66.45,336.512 c -0.42,2.13 -0.62,4.23 -0.62,6.29 0,8.61 3.5,16.6 9.27,22.45 5.78,5.85 13.74,9.51 22.78,9.51 h 646.28 c 9.06,0 17.02,-3.67 22.8,-9.52 5.77,-5.85 9.26,-13.84 9.26,-22.44 0,-2.21 -0.23,-4.47 -0.72,-6.75 l -74.12,-348.098 4.89,-1.043"
         style="fill:#17282f;fill-opacity:1;fill-rule:nonzero;stroke:none"
         id="path240" /><path
         d="m 2645.93,873.309 c 0,-28.5 -23.11,-51.59 -51.6,-51.59 -28.5,0 -51.59,23.09 -51.59,51.59 0,28.492 23.09,51.601 51.59,51.601 28.49,0 51.6,-23.109 51.6,-51.601"
         style="fill:#17282f;fill-opacity:1;fill-rule:nonzero;stroke:none"
         id="path242" /><path
         d="m 2747.34,1035.89 h 76.78 c 2.76,0 5,2.23 5,5 0,2.76 -2.24,5 -5,5 h -76.78 c -2.77,0 -5,-2.24 -5,-5 0,-2.77 2.23,-5 5,-5"
         style="fill:#17282f;fill-opacity:1;fill-rule:nonzero;stroke:none"
         id="path244" /><path
         d="m 2380.65,1035.89 h 291.47 c 2.76,0 5,2.23 5,5 0,2.76 -2.24,5 -5,5 h -291.47 c -2.77,0 -5,-2.24 -5,-5 0,-2.77 2.23,-5 5,-5"
         style="fill:#17282f;fill-opacity:1;fill-rule:nonzero;stroke:none"
         id="path246" /><path
         d="m 2883.05,311.762 -58.93,-154.621 c 0,0 -150.23,37.859 -342.73,77.308 -201.29,41.25 -411.53,94.653 -520.58,285.973 -13.29,23.316 -22.14,50.879 -15.92,76.996 15.75,66.082 101.71,84.012 158.38,90.633 35.56,4.148 71.46,5.527 107.25,6.027 18.24,0.262 78.43,9.813 92.99,-0.898 0.01,0 37.77,-27.789 69.95,-41.45 32.18,-13.66 501.92,12.282 501.92,12.282 0,0 13.97,29.476 14.78,56.398 73.84,37.531 244.82,69.309 317.07,55.27 113.61,-22.09 179.88,-88.36 167.26,-157.789 -12.62,-69.43 -263.35,-255.629 -491.44,-306.129"
         style="fill:#17282f;fill-opacity:1;fill-rule:nonzero;stroke:none"
         id="path248" /><path
         d="m 2884.33,316.602 c -0.01,0 -2.17,0.566 -6.27,1.75 -28.68,8.226 -150.52,45.82 -251.87,114.32 -52.9,35.726 -100.79,74.308 -152.93,104.117 -52.12,29.801 -108.65,50.762 -178.16,50.742 -13.79,0 -28.09,-0.82 -42.95,-2.551 -2.75,-0.32 -4.71,-2.8 -4.39,-5.539 0.32,-2.75 2.8,-4.711 5.54,-4.39 14.5,1.687 28.41,2.48 41.8,2.48 67.46,-0.011 121.96,-20.172 173.19,-49.422 51.21,-29.25 98.97,-67.668 152.3,-103.718 117.7,-79.493 260.91,-117.36 261.18,-117.461 2.67,-0.711 5.4,0.879 6.11,3.55 0.71,2.668 -0.88,5.411 -3.55,6.122"
         style="fill:#ffffff;fill-opacity:1;fill-rule:nonzero;stroke:none"
         id="path250" /><path
         d="m 2597.92,442.34 c 75.09,21.648 129.74,69.961 188.75,115.601 62.57,48.45 128.61,95.258 199.46,131.09 2.47,1.25 3.46,4.258 2.21,6.719 -1.25,2.461 -4.25,3.449 -6.72,2.199 -71.74,-36.289 -138.28,-83.48 -201.08,-132.109 -59.35,-45.988 -112.98,-93.078 -185.39,-113.891 -2.65,-0.758 -4.18,-3.531 -3.42,-6.187 0.76,-2.653 3.53,-4.184 6.19,-3.422"
         style="fill:#ffffff;fill-opacity:1;fill-rule:nonzero;stroke:none"
         id="path252" /><path
         d="m 2570.61,1963.15 h 21.64 c 2.76,0 5,2.24 5,5 0,2.76 -2.24,5 -5,5 h -21.64 c -2.76,0 -5,-2.24 -5,-5 0,-2.76 2.24,-5 5,-5"
         style="fill:#17282f;fill-opacity:1;fill-rule:nonzero;stroke:none"
         id="path254" /></g></g></svg>
